<svg width="10" height="10" viewBox="0 0 10 10" fill="none" xmlns="http://www.w3.org/2000/svg">
<path d="M6.75005 20.875C6.41281 20.877 6.0785 20.8123 5.76629 20.6848C5.45408 20.5573 5.17011 20.3694 4.93067 20.1319L2.72692 17.9281C1.47817 16.6663 0.77771 14.9628 0.77771 13.1875C0.77771 11.4122 1.47817 9.70868 2.72692 8.44688C2.99153 8.21793 3.17459 7.90921 3.24854 7.56721C3.32248 7.22521 3.28331 6.86844 3.13692 6.55063L1.90692 3.98813C1.65819 3.39082 1.64463 2.72154 1.86894 2.11465C2.09326 1.50776 2.53885 1.00819 3.11626 0.716238C3.69367 0.42429 4.36015 0.361578 4.98188 0.540691C5.60362 0.719804 6.13458 1.12748 6.46817 1.68188L7.69817 4.24438C8.32185 5.49549 8.53618 6.91108 8.31084 8.29074C8.08549 9.6704 7.43189 10.9442 6.44255 11.9319C6.28914 12.0822 6.16726 12.2616 6.08406 12.4596C6.00086 12.6576 5.958 12.8702 5.958 13.085C5.958 13.2998 6.00086 13.5124 6.08406 13.7104C6.16726 13.9084 6.28914 14.0878 6.44255 14.2381L8.6463 16.4419C8.88648 16.6801 9.07711 16.9635 9.20721 17.2758C9.3373 17.588 9.40428 17.923 9.40428 18.2612C9.40428 18.5995 9.3373 18.9345 9.20721 19.2467C9.07711 19.559 8.88648 19.8424 8.6463 20.0806C8.4022 20.3368 8.10769 20.5396 7.78133 20.6763C7.45498 20.813 7.10384 20.8807 6.75005 20.875Z" fill="url(#paint0_linear_5_121)" fill-opacity="0.1"/>
<defs>
<linearGradient id="paint0_linear_5_121" x1="2.16412" y1="1.53526" x2="14.9688" y2="8.39107" gradientUnits="userSpaceOnUse">
<stop stop-color="#2E6CD8"/>
<stop offset="1" stop-color="#4AF28F" stop-opacity="0.49"/>
</linearGradient>
</defs>
</svg>
