<svg width="10" height="10" viewBox="0 0 10 10" fill="none" xmlns="http://www.w3.org/2000/svg">
<path d="M6.37505 20.875C6.03781 20.877 5.7035 20.8123 5.39129 20.6848C5.07908 20.5573 4.79512 20.3694 4.55568 20.1319L2.35193 17.9281C1.10317 16.6663 0.40271 14.9628 0.40271 13.1875C0.40271 11.4122 1.10317 9.70868 2.35193 8.44688C2.61653 8.21793 2.7996 7.90921 2.87354 7.56721C2.94749 7.22521 2.90832 6.86844 2.76193 6.55063L1.53193 3.98813C1.2832 3.39082 1.26963 2.72154 1.49395 2.11465C1.71826 1.50776 2.16386 1.00819 2.74127 0.716238C3.31868 0.42429 3.98515 0.361578 4.60688 0.540691C5.22862 0.719804 5.75958 1.12748 6.09317 1.68188L7.32318 4.24438C7.94685 5.49549 8.16119 6.91108 7.93584 8.29074C7.7105 9.6704 7.05689 10.9442 6.06755 11.9319C5.91414 12.0822 5.79226 12.2616 5.70906 12.4596C5.62586 12.6576 5.583 12.8702 5.583 13.085C5.583 13.2998 5.62586 13.5124 5.70906 13.7104C5.79226 13.9084 5.91414 14.0878 6.06755 14.2381L8.2713 16.4419C8.51148 16.6801 8.70211 16.9635 8.83221 17.2758C8.9623 17.588 9.02929 17.923 9.02929 18.2612C9.02929 18.5995 8.9623 18.9345 8.83221 19.2467C8.70211 19.559 8.51148 19.8424 8.2713 20.0806C8.0272 20.3368 7.73269 20.5396 7.40633 20.6763C7.07998 20.813 6.72884 20.8807 6.37505 20.875Z" fill="url(#paint0_linear_5_123)" fill-opacity="0.1"/>
<defs>
<linearGradient id="paint0_linear_5_123" x1="1.78912" y1="1.53526" x2="14.5938" y2="8.39108" gradientUnits="userSpaceOnUse">
<stop stop-color="#2E6CD8"/>
<stop offset="1" stop-color="#4AF28F" stop-opacity="0.49"/>
</linearGradient>
</defs>
</svg>
