<svg width="61" height="42" viewBox="0 0 61 42" fill="none" xmlns="http://www.w3.org/2000/svg">
<path d="M33.4375 41.125C33.1003 41.1269 32.7659 41.0623 32.4537 40.9348C32.1415 40.8073 31.8576 40.6194 31.6181 40.3819C31.3779 40.1437 31.1873 39.8602 31.0572 39.548C30.9271 39.2357 30.8601 38.9008 30.8601 38.5625C30.8601 38.2242 30.9271 37.8893 31.0572 37.577C31.1873 37.2648 31.3779 36.9813 31.6181 36.7431L33.9756 34.3856C33.0819 34.4786 32.1786 34.3755 31.3288 34.0834C30.4791 33.7913 29.7033 33.3172 29.0556 32.6944L26.4931 30.1319C26.0106 29.6493 25.7395 28.9949 25.7395 28.3125C25.7395 27.6301 26.0106 26.9757 26.4931 26.4931C26.9757 26.0106 27.6301 25.7395 28.3125 25.7395C28.9949 25.7395 29.6493 26.0106 30.1319 26.4931L32.4381 28.7994C32.3524 27.9096 32.4641 27.0119 32.7653 26.1703C33.0665 25.3287 33.5498 24.5639 34.1806 23.9306L36.7431 21.3681C37.2257 20.8856 37.8801 20.6145 38.5625 20.6145C39.2449 20.6145 39.8993 20.8856 40.3819 21.3681C40.8644 21.8507 41.1355 22.5051 41.1355 23.1875C41.1355 23.8699 40.8644 24.5243 40.3819 25.0069L38.0244 27.3644C38.9181 27.2714 39.8214 27.3745 40.6712 27.6666C41.5209 27.9587 42.2967 28.4328 42.9444 29.0556L45.5069 31.6181C45.7471 31.8563 45.9377 32.1398 46.0678 32.452C46.1979 32.7643 46.2649 33.0992 46.2649 33.4375C46.2649 33.7758 46.1979 34.1107 46.0678 34.423C45.9377 34.7352 45.7471 35.0187 45.5069 35.2569C45.2687 35.4971 44.9852 35.6877 44.673 35.8178C44.3607 35.9479 44.0258 36.0149 43.6875 36.0149C43.3492 36.0149 43.0143 35.9479 42.702 35.8178C42.3898 35.6877 42.1063 35.4971 41.8681 35.2569L39.5619 32.9506C39.6476 33.8404 39.5359 34.7381 39.2347 35.5797C38.9335 36.4213 38.4502 37.1861 37.8194 37.8194L35.2569 40.3819C35.0174 40.6194 34.7335 40.8073 34.4213 40.9348C34.1091 41.0623 33.7747 41.1269 33.4375 41.125H71.875V26.8775C71.8746 26.3745 71.7262 25.8827 71.4482 25.4635C71.1702 25.0443 70.775 24.7162 70.3119 24.52L48.8125 15.5V2.6875C48.8125 2.00788 48.5425 1.3561 48.062 0.875539C47.5814 0.394977 46.9296 0.125 46.25 0.125H25.75C25.0704 0.125 24.4186 0.394977 23.938 0.875539C23.4575 1.3561 23.1875 2.00788 23.1875 2.6875V15.5L1.68812 24.52C1.22496 24.7162 0.829766 25.0443 0.551806 25.4635C0.273845 25.8827 0.12541 26.3745 0.125 26.8775V41.125H33.4375Z" fill="url(#paint0_linear_5_125)" fill-opacity="0.1"/>
<defs>
<linearGradient id="paint0_linear_5_125" x1="11.6562" y1="2.32142" x2="34.7789" y2="53.6427" gradientUnits="userSpaceOnUse">
<stop stop-color="#2E6CD8"/>
<stop offset="1" stop-color="#4AF28F" stop-opacity="0.49"/>
</linearGradient>
</defs>
</svg>
