<svg width="10" height="10" viewBox="0 0 10 10" fill="none" xmlns="http://www.w3.org/2000/svg">
<path d="M6.56255 20.875C6.22531 20.877 5.89099 20.8123 5.57879 20.6848C5.26658 20.5573 4.98262 20.3694 4.74318 20.1319L2.53942 17.9281C1.29067 16.6663 0.59021 14.9628 0.59021 13.1875C0.59021 11.4122 1.29067 9.70868 2.53942 8.44688C2.80403 8.21793 2.98709 7.90921 3.06104 7.56721C3.13498 7.22521 3.09581 6.86844 2.94942 6.55063L1.71942 3.98813C1.47069 3.39082 1.45713 2.72154 1.68144 2.11465C1.90576 1.50776 2.35135 1.00819 2.92876 0.716238C3.50617 0.42429 4.17265 0.361578 4.79438 0.540691C5.41612 0.719804 5.94708 1.12748 6.28067 1.68188L7.51067 4.24438C8.13435 5.49549 8.34868 6.91108 8.12334 8.29074C7.89799 9.6704 7.24438 10.9442 6.25505 11.9319C6.10163 12.0822 5.97976 12.2616 5.89656 12.4596C5.81335 12.6576 5.7705 12.8702 5.7705 13.085C5.7705 13.2998 5.81335 13.5124 5.89656 13.7104C5.97976 13.9084 6.10163 14.0878 6.25505 14.2381L8.4588 16.4419C8.69898 16.6801 8.88961 16.9635 9.01971 17.2758C9.1498 17.588 9.21678 17.923 9.21678 18.2612C9.21678 18.5995 9.1498 18.9345 9.01971 19.2467C8.88961 19.559 8.69898 19.8424 8.4588 20.0806C8.2147 20.3368 7.92019 20.5396 7.59383 20.6763C7.26748 20.813 6.91634 20.8807 6.56255 20.875Z" fill="url(#paint0_linear_5_122)" fill-opacity="0.1"/>
<defs>
<linearGradient id="paint0_linear_5_122" x1="1.97662" y1="1.53526" x2="14.7813" y2="8.39108" gradientUnits="userSpaceOnUse">
<stop stop-color="#2E6CD8"/>
<stop offset="1" stop-color="#4AF28F" stop-opacity="0.49"/>
</linearGradient>
</defs>
</svg>
