<svg width="24" height="24" viewBox="0 0 24 24" fill="none" xmlns="http://www.w3.org/2000/svg">
<path d="M4.32002 9.83438H1.41565V11.3344H4.32002V9.83438Z" fill="white"/>
<path d="M22.5844 9.83438H19.6801V11.3344H22.5844V9.83438Z" fill="white"/>
<path d="M4.97521 2.49754L3.91455 3.5582L6.02924 5.67289L7.0899 4.61223L4.97521 2.49754Z" fill="white"/>
<path d="M12.75 0H11.25V2.90438H12.75V0Z" fill="white"/>
<path d="M19.0247 2.49894L16.91 4.61363L17.9707 5.67429L20.0854 3.5596L19.0247 2.49894Z" fill="white"/>
<path d="M6.02961 15.4931L3.91492 17.6078L4.97558 18.6684L7.09027 16.5537L6.02961 15.4931Z" fill="white"/>
<path d="M17.9712 15.4945L16.9105 16.5551L19.0252 18.6698L20.0859 17.6092L17.9712 15.4945Z" fill="white"/>
<path d="M8.82935 20.8294C8.82935 21.2457 8.91136 21.658 9.0707 22.0427C9.23003 22.4274 9.46358 22.7769 9.758 23.0713C10.0524 23.3658 10.4019 23.5993 10.7866 23.7587C11.1713 23.918 11.5836 24 12 24C12.4163 24 12.8286 23.918 13.2133 23.7587C13.598 23.5993 13.9475 23.3658 14.2419 23.0713C14.5364 22.7769 14.7699 22.4274 14.9292 22.0427C15.0886 21.658 15.1706 21.2457 15.1706 20.8294V18.75H8.82935V20.8294Z" fill="white"/>
<path d="M15.1706 17.9794C15.1662 17.475 15.2682 16.9755 15.4698 16.5132C15.6713 16.0509 15.9681 15.6362 16.3406 15.2962C17.3246 14.4173 18.0187 13.2605 18.3311 11.9786C18.6435 10.6967 18.5595 9.35025 18.0902 8.11715C17.6209 6.88405 16.7884 5.82242 15.7028 5.07262C14.6172 4.32282 13.3296 3.92016 12.0102 3.91789C10.6908 3.91561 9.4018 4.31383 8.3136 5.05988C7.2254 5.80593 6.38925 6.86468 5.9157 8.09616C5.44216 9.32763 5.35352 10.6738 5.6615 11.9568C5.96949 13.2397 6.6596 14.3989 7.64058 15.2812C8.01663 15.6226 8.31677 16.0392 8.52155 16.504C8.72633 16.9688 8.83119 17.4715 8.82933 17.9794V18H15.1706V17.9794Z" fill="white"/>
</svg>
