<svg width="24" height="24" viewBox="0 0 24 24" fill="none" xmlns="http://www.w3.org/2000/svg">
<path d="M12 18.75C12.4142 18.75 12.75 18.4142 12.75 18C12.75 17.5858 12.4142 17.25 12 17.25C11.5858 17.25 11.25 17.5858 11.25 18C11.25 18.4142 11.5858 18.75 12 18.75Z" fill="white"/>
<path d="M14.0925 13.5H9.9075C8.47334 13.5 7.09792 14.0697 6.08382 15.0838C5.06972 16.0979 4.5 17.4733 4.5 18.9075V20.25H12C11.555 20.25 11.12 20.118 10.75 19.8708C10.38 19.6236 10.0916 19.2722 9.92127 18.861C9.75097 18.4499 9.70642 17.9975 9.79323 17.561C9.88005 17.1246 10.0943 16.7237 10.409 16.409C10.7237 16.0943 11.1246 15.88 11.561 15.7932C11.9975 15.7064 12.4499 15.751 12.861 15.9213C13.2722 16.0916 13.6236 16.38 13.8708 16.75C14.118 17.12 14.25 17.555 14.25 18C14.25 18.5967 14.0129 19.169 13.591 19.591C13.169 20.0129 12.5967 20.25 12 20.25H19.5V18.9075C19.5 17.4733 18.9303 16.0979 17.9162 15.0838C16.9021 14.0697 15.5267 13.5 14.0925 13.5ZM5.25 22.5H18.75C18.9489 22.5 19.1397 22.421 19.2803 22.2803C19.421 22.1397 19.5 21.9489 19.5 21.75H4.5C4.5 21.9489 4.57902 22.1397 4.71967 22.2803C4.86032 22.421 5.05109 22.5 5.25 22.5Z" fill="white"/>
<path d="M18 9.75C17.8011 9.75 17.6103 9.67098 17.4697 9.53033C17.329 9.38968 17.25 9.19891 17.25 9V4.5H15.75C15.5511 4.5 15.3603 4.42098 15.2197 4.28033C15.079 4.13968 15 3.94891 15 3.75C15 3.55109 15.079 3.36032 15.2197 3.21967C15.3603 3.07902 15.5511 3 15.75 3H18C18.1989 3 18.3897 3.07902 18.5303 3.21967C18.671 3.36032 18.75 3.55109 18.75 3.75V9C18.75 9.19891 18.671 9.38968 18.5303 9.53033C18.3897 9.67098 18.1989 9.75 18 9.75Z" fill="white"/>
<path d="M15.75 1.5H5.99998C5.85191 1.50074 5.70738 1.54529 5.58459 1.62804C5.4618 1.71079 5.36625 1.82804 5.30998 1.965C5.25255 2.10158 5.23686 2.25212 5.26489 2.39761C5.29292 2.5431 5.36341 2.67703 5.46748 2.7825L7.27498 4.5825C7.40668 4.53137 7.54625 4.50346 7.68748 4.5H9.56248C9.78556 4.47873 10.0082 4.54512 10.1831 4.68511C10.3581 4.8251 10.4718 5.02769 10.5 5.25C10.4718 5.47231 10.3581 5.6749 10.1831 5.81489C10.0082 5.95488 9.78556 6.02127 9.56248 6H7.68748C7.62505 6.00418 7.56241 6.00418 7.49998 6V6.75C7.56241 6.74582 7.62505 6.74582 7.68748 6.75H9.56248C9.78556 6.72873 10.0082 6.79512 10.1831 6.93511C10.3581 7.0751 10.4718 7.27769 10.5 7.5C10.4718 7.72231 10.3581 7.9249 10.1831 8.06489C10.0082 8.20488 9.78556 8.27127 9.56248 8.25H7.68748C7.62505 8.25418 7.56241 8.25418 7.49998 8.25V9C7.56241 8.99582 7.62505 8.99582 7.68748 9H9.56248C9.78556 8.97873 10.0082 9.04512 10.1831 9.18511C10.3581 9.3251 10.4718 9.52769 10.5 9.75C10.4718 9.97231 10.3581 10.1749 10.1831 10.3149C10.0082 10.4549 9.78556 10.5213 9.56248 10.5H7.68748C7.62505 10.5042 7.56241 10.5042 7.49998 10.5V14.25C7.49998 14.4489 7.579 14.6397 7.71965 14.7803C7.8603 14.921 8.05107 15 8.24998 15H15.75C15.9489 15 16.1397 14.921 16.2803 14.7803C16.421 14.6397 16.5 14.4489 16.5 14.25V2.25C16.5 2.05109 16.421 1.86032 16.2803 1.71967C16.1397 1.57902 15.9489 1.5 15.75 1.5Z" fill="white"/>
</svg>
