<svg width="50" height="63" viewBox="0 0 50 63" fill="none" xmlns="http://www.w3.org/2000/svg">
<path d="M45.5682 44.6285L9.87107 62.1667C9.32065 62.4336 8.71301 62.5535 8.10715 62.515C7.5013 62.4764 6.91782 62.2806 6.41338 61.9466C6.10952 61.8189 5.82804 61.6439 5.57915 61.4278C5.0576 60.8418 4.7483 60.0941 4.70058 59.3039C4.65286 58.5138 4.86945 57.7266 5.31583 57.0678L16.6067 38.9123L4.15296 31.1673C3.08613 30.504 2.21969 29.5621 1.64409 28.4398C1.06848 27.3175 0.804823 26.056 0.880635 24.787C0.956447 23.518 1.36895 22.288 2.07508 21.2255C2.78121 20.1629 3.75507 19.3067 4.895 18.7464L40.5921 1.20817C41.2926 0.826692 42.097 0.692128 42.8757 0.826178C43.6543 0.960228 44.3618 1.35508 44.884 1.94705C45.4056 2.53306 45.7148 3.28073 45.7626 4.07091C45.8103 4.86108 45.5937 5.64828 45.1473 6.30704L33.8564 24.4625L46.3102 32.2076C47.377 32.8708 48.2435 33.8127 48.8191 34.935C49.3947 36.0573 49.6583 37.3188 49.5825 38.5878C49.5067 39.8568 49.0942 41.0868 48.3881 42.1494C47.6819 43.2119 46.7081 44.0681 45.5682 44.6285Z" fill="white" fill-opacity="0.2"/>
</svg>
