<svg width="83" height="64" viewBox="0 0 83 64" fill="none" xmlns="http://www.w3.org/2000/svg">
<path d="M77.8782 0H4.19353C3.21081 0 2.32418 0.349781 1.61053 0.910969H1.60925C0.635497 1.67972 -3.45707e-06 2.85847 -3.45707e-06 4.19353V63.3027H62.073C73.1187 63.3027 82.073 54.3484 82.073 43.3027V4.19353C82.0717 1.886 80.2037 0 77.8782 0ZM70.8377 19.1995C73.4694 19.1995 75.6027 21.3354 75.6027 23.9671C75.6027 26.5988 73.4694 28.7333 70.8377 28.7333C68.2035 28.7333 66.0702 26.5975 66.0702 23.9671C66.0702 21.3354 68.2035 19.1995 70.8377 19.1995ZM60.0817 50.6581H10.282V49.455V47.1333V15.2123C10.282 13.1559 11.7606 12.7203 12.7049 12.6447H57.5871C58.0919 12.6575 60.0829 12.874 60.0829 15.4224V50.6581H60.0817ZM70.8365 44.1019C68.1958 44.1019 66.0587 41.9622 66.0587 39.3241C66.0587 36.686 68.1971 34.5451 70.8365 34.5451C73.4733 34.5451 75.6143 36.6873 75.6143 39.3241C75.6143 41.9609 73.472 44.1019 70.8365 44.1019Z" fill="url(#paint0_linear_5_93)" fill-opacity="0.08"/>
<defs>
<linearGradient id="paint0_linear_5_93" x1="6.35089" y1="1.9689" x2="73.7251" y2="61.5161" gradientUnits="userSpaceOnUse">
<stop stop-color="#2E6CD8"/>
<stop offset="1" stop-color="#4AF28F" stop-opacity="0.49"/>
</linearGradient>
</defs>
</svg>
