<svg width="25" height="24" viewBox="0 0 25 24" fill="none" xmlns="http://www.w3.org/2000/svg">
<path d="M9.39095 22.5C9.29224 22.5006 9.19439 22.4817 9.10302 22.4443C9.01164 22.407 8.92853 22.352 8.85845 22.2825L8.21345 21.6375C7.84796 21.2682 7.64294 20.7696 7.64294 20.25C7.64294 19.7304 7.84796 19.2318 8.21345 18.8625C8.29089 18.7955 8.34447 18.7051 8.36611 18.605C8.38776 18.5049 8.37629 18.4005 8.33345 18.3075L7.97345 17.5575C7.90065 17.3827 7.89668 17.1868 7.96233 17.0092C8.02798 16.8315 8.1584 16.6853 8.3274 16.5999C8.4964 16.5144 8.69146 16.4961 8.87343 16.5485C9.05541 16.6009 9.21081 16.7202 9.30845 16.8825L9.66845 17.6325C9.85098 17.9987 9.91372 18.413 9.84776 18.8168C9.78181 19.2206 9.59051 19.5934 9.30095 19.8825C9.25604 19.9265 9.22037 19.979 9.19602 20.037C9.17167 20.0949 9.15913 20.1571 9.15913 20.22C9.15913 20.2829 9.17167 20.3451 9.19602 20.403C9.22037 20.461 9.25604 20.5135 9.30095 20.5575L9.94595 21.2025C10.0162 21.2722 10.072 21.3552 10.1101 21.4466C10.1482 21.538 10.1678 21.636 10.1678 21.735C10.1678 21.834 10.1482 21.932 10.1101 22.0234C10.072 22.1148 10.0162 22.1978 9.94595 22.2675C9.8745 22.3425 9.7883 22.4018 9.69279 22.4419C9.59727 22.4819 9.49449 22.5017 9.39095 22.5Z" fill="white"/>
<path d="M13.1409 22.5C13.0422 22.5006 12.9444 22.4817 12.853 22.4443C12.7616 22.407 12.6785 22.352 12.6084 22.2825L11.9634 21.6375C11.598 21.2682 11.3929 20.7696 11.3929 20.25C11.3929 19.7304 11.598 19.2318 11.9634 18.8625C12.0409 18.7955 12.0945 18.7051 12.1161 18.605C12.1378 18.5049 12.1263 18.4005 12.0834 18.3075L11.7234 17.5575C11.6506 17.3827 11.6467 17.1868 11.7123 17.0092C11.778 16.8315 11.9084 16.6853 12.0774 16.5999C12.2464 16.5144 12.4415 16.4961 12.6234 16.5485C12.8054 16.6009 12.9608 16.7202 13.0584 16.8825L13.4184 17.6325C13.601 17.9987 13.6637 18.413 13.5978 18.8168C13.5318 19.2206 13.3405 19.5934 13.0509 19.8825C13.006 19.9265 12.9704 19.979 12.946 20.037C12.9217 20.0949 12.9091 20.1571 12.9091 20.22C12.9091 20.2829 12.9217 20.3451 12.946 20.403C12.9704 20.461 13.006 20.5135 13.0509 20.5575L13.6959 21.2025C13.7662 21.2722 13.822 21.3552 13.8601 21.4466C13.8982 21.538 13.9178 21.636 13.9178 21.735C13.9178 21.834 13.8982 21.932 13.8601 22.0234C13.822 22.1148 13.7662 22.1978 13.6959 22.2675C13.6245 22.3425 13.5383 22.4018 13.4428 22.4419C13.3473 22.4819 13.2445 22.5017 13.1409 22.5Z" fill="white"/>
<path d="M16.8909 22.5C16.7922 22.5006 16.6944 22.4817 16.603 22.4443C16.5116 22.407 16.4285 22.352 16.3584 22.2825L15.7134 21.6375C15.348 21.2682 15.1429 20.7696 15.1429 20.25C15.1429 19.7304 15.348 19.2318 15.7134 18.8625C15.7909 18.7955 15.8445 18.7051 15.8661 18.605C15.8878 18.5049 15.8763 18.4005 15.8334 18.3075L15.4734 17.5575C15.4006 17.3827 15.3967 17.1868 15.4623 17.0092C15.528 16.8315 15.6584 16.6853 15.8274 16.5999C15.9964 16.5144 16.1915 16.4961 16.3734 16.5485C16.5554 16.6009 16.7108 16.7202 16.8084 16.8825L17.1684 17.6325C17.351 17.9987 17.4137 18.413 17.3478 18.8168C17.2818 19.2206 17.0905 19.5934 16.8009 19.8825C16.756 19.9265 16.7204 19.979 16.696 20.037C16.6717 20.0949 16.6591 20.1571 16.6591 20.22C16.6591 20.2829 16.6717 20.3451 16.696 20.403C16.7204 20.461 16.756 20.5135 16.8009 20.5575L17.4459 21.2025C17.5162 21.2722 17.572 21.3552 17.6101 21.4466C17.6482 21.538 17.6678 21.636 17.6678 21.735C17.6678 21.834 17.6482 21.932 17.6101 22.0234C17.572 22.1148 17.5162 22.1978 17.4459 22.2675C17.3745 22.3425 17.2883 22.4018 17.1928 22.4419C17.0973 22.4819 16.9945 22.5017 16.8909 22.5Z" fill="white"/>
<path d="M2.64099 15.75H22.141C22.3399 15.75 22.5307 15.671 22.6713 15.5303C22.812 15.3897 22.891 15.1989 22.891 15H1.89099C1.89099 15.1989 1.97001 15.3897 2.11066 15.5303C2.25131 15.671 2.44208 15.75 2.64099 15.75Z" fill="white"/>
<path d="M11.641 13.5C11.5423 13.5006 11.4444 13.4817 11.3531 13.4443C11.2617 13.407 11.1786 13.352 11.1085 13.2825C11.0382 13.2128 10.9824 13.1298 10.9443 13.0384C10.9062 12.947 10.8866 12.849 10.8866 12.75C10.8866 12.651 10.9062 12.553 10.9443 12.4616C10.9824 12.3702 11.0382 12.2872 11.1085 12.2175L11.7985 11.5275C11.5369 11.5547 11.2725 11.5245 11.0238 11.439C10.7751 11.3535 10.5481 11.2148 10.3585 11.0325L9.60849 10.2825C9.46726 10.1413 9.38792 9.94973 9.38792 9.75C9.38792 9.55027 9.46726 9.35873 9.60849 9.2175C9.74972 9.07627 9.94127 8.99693 10.141 8.99693C10.3407 8.99693 10.5323 9.07627 10.6735 9.2175L11.3485 9.8925C11.3234 9.63208 11.3561 9.36933 11.4442 9.12301C11.5324 8.87668 11.6739 8.65285 11.8585 8.4675L12.6085 7.7175C12.7497 7.57627 12.9413 7.49693 13.141 7.49693C13.3407 7.49693 13.5323 7.57627 13.6735 7.7175C13.8147 7.85873 13.8941 8.05027 13.8941 8.25C13.8941 8.44973 13.8147 8.64127 13.6735 8.7825L12.9835 9.4725C13.2451 9.44528 13.5094 9.47547 13.7582 9.56096C14.0069 9.64646 14.2339 9.7852 14.4235 9.9675L15.1735 10.7175C15.2438 10.7872 15.2996 10.8702 15.3377 10.9616C15.3757 11.053 15.3953 11.151 15.3953 11.25C15.3953 11.349 15.3757 11.447 15.3377 11.5384C15.2996 11.6298 15.2438 11.7128 15.1735 11.7825C15.1038 11.8528 15.0208 11.9086 14.9294 11.9467C14.838 11.9847 14.74 12.0043 14.641 12.0043C14.542 12.0043 14.444 11.9847 14.3526 11.9467C14.2612 11.9086 14.1782 11.8528 14.1085 11.7825L13.4335 11.1075C13.4586 11.3679 13.4259 11.6307 13.3377 11.877C13.2496 12.1233 13.1081 12.3471 12.9235 12.5325L12.1735 13.2825C12.1034 13.352 12.0203 13.407 11.9289 13.4443C11.8375 13.4817 11.7397 13.5006 11.641 13.5H22.891V9.33C22.8909 9.18278 22.8474 9.03885 22.7661 8.91616C22.6847 8.79346 22.5691 8.69742 22.4335 8.64L16.141 6V2.25C16.141 2.05109 16.062 1.86032 15.9213 1.71967C15.7807 1.57902 15.5899 1.5 15.391 1.5H9.39099C9.19208 1.5 9.00131 1.57902 8.86066 1.71967C8.72001 1.86032 8.64099 2.05109 8.64099 2.25V6L2.34849 8.64C2.21293 8.69742 2.09726 8.79346 2.01591 8.91616C1.93456 9.03885 1.89111 9.18278 1.89099 9.33V13.5H11.641Z" fill="white"/>
</svg>
