<svg width="390" height="844" viewBox="0 0 390 844" fill="none" xmlns="http://www.w3.org/2000/svg">
<g clip-path="url(#clip0_57_51)">
<rect width="390" height="844" fill="#EBF2F6"/>
<g filter="url(#filter0_f_57_51)">
<path d="M-3 104C-3 95.7157 3.71573 89 12 89H372C380.284 89 387 95.7157 387 104V154H-3V104Z" fill="url(#paint0_linear_57_51)" fill-opacity="0.2"/>
</g>
<path d="M-1 131C-1 112.144 -1 102.716 4.85786 96.8579C10.7157 91 20.1438 91 39 91H350C368.856 91 378.284 91 384.142 96.8579C390 102.716 390 112.144 390 131V844H-1V131Z" fill="#0D2639"/>
<circle cx="196" cy="507" r="115" fill="#EBF2F6"/>
<g filter="url(#filter1_d_57_51)">
<path d="M89.7715 522.256C78.4999 436.5 152.5 384 226 401.5" stroke="url(#paint1_linear_57_51)" stroke-width="14" stroke-linecap="round"/>
</g>
<g filter="url(#filter2_f_57_51)">
<path d="M90.1815 520.097C90.1814 458 119 386 224 402" stroke="url(#paint2_linear_57_51)" stroke-width="14" stroke-linecap="round"/>
</g>
<g filter="url(#filter3_f_57_51)">
<circle cx="196.5" cy="506.5" r="102.5" fill="white"/>
</g>
<circle cx="196.5" cy="506.5" r="102.5" fill="white"/>
<g filter="url(#filter4_f_57_51)">
<circle cx="195.941" cy="505.941" r="95" transform="rotate(90.5701 195.941 505.941)" fill="url(#paint3_linear_57_51)" fill-opacity="0.6"/>
</g>
<g filter="url(#filter5_d_57_51)">
<circle cx="196.891" cy="505.891" r="90" transform="rotate(90.5701 196.891 505.891)" fill="#0D2639" fill-opacity="0.95" shape-rendering="crispEdges"/>
</g>
<path d="M193.326 488.739L179.109 521H172.891L187.065 490.217H168.674V485.457H193.326V488.739ZM199.657 503.37L201.592 485.457H220.679V490.587H206.527L205.548 499.087C207.186 498.13 209.041 497.652 211.114 497.652C214.505 497.652 217.135 498.739 219.005 500.913C220.889 503.072 221.831 505.986 221.831 509.652C221.831 513.261 220.788 516.138 218.701 518.283C216.628 520.413 213.773 521.478 210.135 521.478C206.889 521.478 204.193 520.558 202.048 518.717C199.903 516.877 198.744 514.442 198.57 511.413H204.309C204.541 513.138 205.157 514.464 206.157 515.391C207.172 516.304 208.49 516.761 210.114 516.761C211.94 516.761 213.36 516.109 214.374 514.804C215.389 513.5 215.896 511.725 215.896 509.478C215.896 507.319 215.331 505.609 214.201 504.348C213.085 503.072 211.541 502.435 209.57 502.435C208.498 502.435 207.585 502.58 206.831 502.87C206.092 503.159 205.28 503.717 204.396 504.543L199.657 503.37Z" fill="#F0F9F9"/>
<g filter="url(#filter6_d_57_51)">
<circle cx="232.946" cy="401.946" r="15" transform="rotate(98.0197 232.946 401.946)" fill="white"/>
</g>
<g filter="url(#filter7_f_57_51)">
<rect x="24" y="691" width="159" height="73" rx="20" fill="url(#paint4_linear_57_51)"/>
</g>
<g filter="url(#filter8_f_57_51)">
<rect x="207" y="691" width="159" height="73" rx="20" fill="url(#paint5_linear_57_51)"/>
</g>
<rect x="24" y="691" width="159" height="73" rx="20" fill="url(#paint6_linear_57_51)"/>
<rect x="207" y="691" width="159" height="73" rx="20" fill="url(#paint7_linear_57_51)"/>
<g clip-path="url(#clip1_57_51)">
<rect x="82" y="737" width="42" height="22" rx="11" fill="#EBF2F6"/>
<path d="M113 759C106.925 759 102 754.075 102 748C102 741.925 106.925 737 113 737C119.075 737 124 741.925 124 748C124 754.075 119.075 759 113 759Z" fill="url(#paint8_linear_57_51)"/>
<g filter="url(#filter9_bii_57_51)">
<path d="M113 759C106.925 759 102 754.075 102 748C102 741.925 106.925 737 113 737C119.075 737 124 741.925 124 748C124 754.075 119.075 759 113 759Z" fill="url(#paint9_linear_57_51)" fill-opacity="0.1"/>
</g>
<path d="M143.5 724.732H134.424V729.42H143.5V724.732Z" fill="white" fill-opacity="0.1"/>
<path d="M145.547 701.805L142.233 705.119L148.841 711.728L152.156 708.413L145.547 701.805Z" fill="white" fill-opacity="0.1"/>
<path d="M169.844 694H165.156V703.076H169.844V694Z" fill="white" fill-opacity="0.1"/>
<path d="M148.843 742.416L142.234 749.024L145.549 752.339L152.157 745.73L148.843 742.416Z" fill="white" fill-opacity="0.1"/>
<path d="M157.592 759.092C157.592 760.393 157.848 761.681 158.346 762.884C158.844 764.086 159.574 765.178 160.494 766.098C161.414 767.018 162.506 767.748 163.708 768.246C164.91 768.744 166.199 769 167.5 769C168.801 769 170.09 768.744 171.292 768.246C172.494 767.748 173.586 767.018 174.506 766.098C175.426 765.178 176.156 764.086 176.654 762.884C177.152 761.681 177.408 760.393 177.408 759.092V752.594H157.592V759.092Z" fill="white" fill-opacity="0.1"/>
<path d="M177.408 750.186C177.395 748.61 177.713 747.048 178.343 745.604C178.973 744.159 179.9 742.863 181.064 741.801C184.139 739.054 186.309 735.439 187.285 731.433C188.261 727.427 187.999 723.22 186.532 719.366C185.066 715.513 182.464 712.195 179.071 709.852C175.679 707.509 171.655 706.251 167.532 706.243C163.409 706.236 159.381 707.481 155.98 709.812C152.579 712.144 149.967 715.452 148.487 719.301C147.007 723.149 146.73 727.356 147.692 731.365C148.655 735.374 150.811 738.997 153.877 741.754C155.052 742.821 155.99 744.123 156.63 745.575C157.27 747.028 157.598 748.598 157.592 750.186V750.25H177.408V750.186Z" fill="white" fill-opacity="0.1"/>
<circle cx="49" cy="716" r="18" fill="white" fill-opacity="0.2"/>
<path d="M41.32 712.834H38.4156V714.334H41.32V712.834Z" fill="white"/>
<path d="M59.5844 712.834H56.6801V714.334H59.5844V712.834Z" fill="white"/>
<path d="M41.9752 705.498L40.9146 706.558L43.0292 708.673L44.0899 707.612L41.9752 705.498Z" fill="white"/>
<path d="M49.75 703H48.25V705.904H49.75V703Z" fill="white"/>
<path d="M56.0247 705.499L53.91 707.614L54.9707 708.674L57.0854 706.56L56.0247 705.499Z" fill="white"/>
<path d="M43.0296 718.493L40.9149 720.608L41.9756 721.668L44.0903 719.554L43.0296 718.493Z" fill="white"/>
<path d="M54.9712 718.494L53.9105 719.555L56.0252 721.67L57.0859 720.609L54.9712 718.494Z" fill="white"/>
<path d="M45.8293 723.829C45.8293 724.246 45.9114 724.658 46.0707 725.043C46.23 725.427 46.4636 725.777 46.758 726.071C47.0524 726.366 47.4019 726.599 47.7866 726.759C48.1713 726.918 48.5836 727 49 727C49.4163 727 49.8286 726.918 50.2133 726.759C50.598 726.599 50.9475 726.366 51.2419 726.071C51.5364 725.777 51.7699 725.427 51.9292 725.043C52.0886 724.658 52.1706 724.246 52.1706 723.829V721.75H45.8293V723.829Z" fill="white"/>
<path d="M52.1706 720.979C52.1662 720.475 52.2682 719.975 52.4698 719.513C52.6713 719.051 52.9681 718.636 53.3406 718.296C54.3246 717.417 55.0187 716.26 55.3311 714.979C55.6435 713.697 55.5595 712.35 55.0902 711.117C54.6209 709.884 53.7884 708.822 52.7028 708.073C51.6172 707.323 50.3296 706.92 49.0102 706.918C47.6908 706.916 46.4018 707.314 45.3136 708.06C44.2254 708.806 43.3892 709.865 42.9157 711.096C42.4422 712.328 42.3535 713.674 42.6615 714.957C42.9695 716.24 43.6596 717.399 44.6406 718.281C45.0166 718.623 45.3168 719.039 45.5216 719.504C45.7263 719.969 45.8312 720.471 45.8293 720.979V721H52.1706V720.979Z" fill="white"/>
<path d="M79.1304 719.421H84.2991V721H77.1548V709.626H79.1304V719.421ZM87.6476 721H85.7484V712.548H87.6476V721ZM85.6302 710.35C85.6302 710.057 85.7229 709.816 85.9084 709.626C86.0939 709.431 86.3583 709.334 86.7015 709.334C87.0447 709.334 87.309 709.431 87.4945 709.626C87.6847 709.816 87.7797 710.057 87.7797 710.35C87.7797 710.637 87.6847 710.876 87.4945 711.066C87.309 711.256 87.0447 711.351 86.7015 711.351C86.3583 711.351 86.0939 711.256 85.9084 711.066C85.7229 710.876 85.6302 710.637 85.6302 710.35ZM89.3744 716.708C89.3744 715.395 89.6828 714.347 90.2996 713.563C90.9164 712.78 91.735 712.388 92.7552 712.388C93.7199 712.388 94.4781 712.724 95.03 713.397L95.1205 712.548H96.8248V720.743C96.8248 721.851 96.4793 722.725 95.7883 723.365C95.1019 724.005 94.1721 724.325 92.9987 724.325C92.3819 724.325 91.7767 724.195 91.1831 723.936C90.5941 723.681 90.1442 723.344 89.8335 722.927L90.7379 721.786C91.3176 722.482 92.0341 722.83 92.8874 722.83C93.5181 722.83 94.0167 722.658 94.3831 722.315C94.7494 721.976 94.9326 721.475 94.9326 720.812V720.242C94.3854 720.849 93.655 721.153 92.7413 721.153C91.7535 721.153 90.9442 720.761 90.3135 719.977C89.6874 719.189 89.3744 718.099 89.3744 716.708ZM91.2665 716.875C91.2665 717.723 91.4381 718.391 91.7813 718.878C92.1292 719.365 92.6115 719.609 93.2283 719.609C93.9935 719.609 94.5616 719.282 94.9326 718.628V714.906C94.5709 714.266 94.0074 713.946 93.2422 713.946C92.6161 713.946 92.1292 714.194 91.7813 714.69C91.4381 715.182 91.2665 715.91 91.2665 716.875ZM100.658 713.466C101.275 712.747 102.058 712.388 103.009 712.388C104.808 712.388 105.722 713.417 105.75 715.477V721H103.851V715.546C103.851 714.962 103.723 714.549 103.468 714.308C103.218 714.067 102.849 713.946 102.362 713.946C101.601 713.946 101.033 714.285 100.658 714.962V721H98.7586V709H100.658V713.466ZM110.056 710.496V712.548H111.545V713.953H110.056V718.67C110.056 718.994 110.119 719.228 110.244 719.372C110.374 719.516 110.603 719.588 110.933 719.588C111.151 719.588 111.371 719.56 111.594 719.504V720.979C111.162 721.095 110.745 721.153 110.341 721.153C108.885 721.153 108.157 720.348 108.157 718.739V713.953H106.766V712.548H108.157V710.496H110.056ZM115.023 721H113.123V712.548H115.023V721ZM113.005 710.35C113.005 710.057 113.098 709.816 113.283 709.626C113.469 709.431 113.733 709.334 114.076 709.334C114.42 709.334 114.684 709.431 114.87 709.626C115.06 709.816 115.155 710.057 115.155 710.35C115.155 710.637 115.06 710.876 114.87 711.066C114.684 711.256 114.42 711.351 114.076 711.351C113.733 711.351 113.469 711.256 113.283 711.066C113.098 710.876 113.005 710.637 113.005 710.35ZM118.843 712.548L118.899 713.522C119.525 712.766 120.346 712.388 121.362 712.388C123.119 712.388 124.014 713.397 124.047 715.414V721H122.148V715.525C122.148 714.987 122.032 714.591 121.8 714.336C121.568 714.076 121.19 713.946 120.666 713.946C119.901 713.946 119.33 714.292 118.955 714.983V721H117.055V712.548H118.843ZM125.64 716.708C125.64 715.395 125.948 714.347 126.565 713.563C127.182 712.78 128.001 712.388 129.021 712.388C129.986 712.388 130.744 712.724 131.296 713.397L131.386 712.548H133.09V720.743C133.09 721.851 132.745 722.725 132.054 723.365C131.368 724.005 130.438 724.325 129.264 724.325C128.648 724.325 128.042 724.195 127.449 723.936C126.86 723.681 126.41 723.344 126.099 722.927L127.003 721.786C127.583 722.482 128.3 722.83 129.153 722.83C129.784 722.83 130.282 722.658 130.649 722.315C131.015 721.976 131.198 721.475 131.198 720.812V720.242C130.651 720.849 129.921 721.153 129.007 721.153C128.019 721.153 127.21 720.761 126.579 719.977C125.953 719.189 125.64 718.099 125.64 716.708ZM127.532 716.875C127.532 717.723 127.704 718.391 128.047 718.878C128.395 719.365 128.877 719.609 129.494 719.609C130.259 719.609 130.827 719.282 131.198 718.628V714.906C130.837 714.266 130.273 713.946 129.508 713.946C128.882 713.946 128.395 714.194 128.047 714.69C127.704 715.182 127.532 715.91 127.532 716.875Z" fill="white"/>
</g>
<path d="M357.362 726.318L336.907 755.714C336.59 756.164 336.145 756.537 335.615 756.794C335.086 757.051 334.489 757.185 333.884 757.183C333.56 757.234 333.229 757.241 332.902 757.203C332.146 757.028 331.481 756.636 331.011 756.091C330.542 755.547 330.297 754.879 330.314 754.196L329.939 735.844L315.276 736.144C314.02 736.17 312.781 735.901 311.689 735.366C310.596 734.831 309.69 734.05 309.064 733.103C308.439 732.156 308.118 731.078 308.134 729.983C308.15 728.888 308.503 727.814 309.156 726.875L329.61 697.48C329.991 696.876 330.594 696.401 331.321 696.13C332.047 695.86 332.856 695.811 333.616 695.99C334.372 696.165 335.037 696.557 335.506 697.102C335.975 697.647 336.221 698.314 336.204 698.997L336.579 717.349L351.242 717.049C352.498 717.023 353.737 717.292 354.829 717.827C355.922 718.362 356.828 719.144 357.453 720.091C358.079 721.038 358.4 722.115 358.384 723.21C358.368 724.306 358.015 725.379 357.362 726.318Z" fill="white" fill-opacity="0.2"/>
<path d="M229.861 715.068H225.36V718.115H230.64V720H223.016V708.626H230.626V710.525H225.36V713.231H229.861V715.068ZM233.943 711.548L234.012 712.522C234.62 711.766 235.431 711.388 236.447 711.388C237.342 711.388 238.008 711.652 238.443 712.181C238.884 712.705 239.109 713.491 239.118 714.539V720H236.857V714.595C236.857 714.117 236.753 713.769 236.544 713.551C236.336 713.333 235.99 713.224 235.508 713.224C234.872 713.224 234.395 713.496 234.075 714.038V720H231.821V711.548H233.943ZM244.711 720.153C243.473 720.153 242.464 719.775 241.685 719.019C240.906 718.259 240.517 717.245 240.517 715.979V715.757C240.517 714.908 240.679 714.15 241.004 713.482C241.333 712.814 241.799 712.299 242.402 711.937C243.005 711.571 243.691 711.388 244.461 711.388C245.616 711.388 246.525 711.754 247.188 712.487C247.856 713.215 248.19 714.247 248.19 715.583V716.508H242.805C242.88 717.06 243.1 717.503 243.466 717.837C243.833 718.17 244.296 718.337 244.857 718.337C245.729 718.337 246.409 718.022 246.896 717.391L248.009 718.63C247.67 719.112 247.211 719.488 246.631 719.757C246.056 720.021 245.416 720.153 244.711 720.153ZM244.454 713.217C244.004 713.217 243.64 713.368 243.362 713.67C243.084 713.971 242.905 714.405 242.826 714.97H245.971V714.79C245.961 714.289 245.824 713.901 245.56 713.628C245.3 713.354 244.932 713.217 244.454 713.217ZM254.208 713.663C253.902 713.621 253.633 713.6 253.401 713.6C252.543 713.6 251.982 713.89 251.717 714.47V720H249.463V711.548H251.592L251.655 712.557C252.109 711.777 252.738 711.388 253.54 711.388C253.79 711.388 254.024 711.423 254.242 711.492L254.208 713.663ZM254.973 715.708C254.973 714.414 255.282 713.37 255.898 712.577C256.52 711.784 257.352 711.388 258.396 711.388C259.323 711.388 260.044 711.706 260.559 712.341L260.657 711.548H262.702V719.722C262.702 720.459 262.533 721.101 262.194 721.649C261.86 722.196 261.389 722.611 260.782 722.894C260.174 723.181 259.46 723.325 258.639 723.325C258.022 723.325 257.42 723.202 256.831 722.957C256.242 722.711 255.796 722.391 255.495 721.997L256.49 720.626C257.055 721.257 257.74 721.572 258.542 721.572C259.14 721.572 259.606 721.412 259.94 721.092C260.274 720.772 260.441 720.318 260.441 719.729V719.277C259.917 719.861 259.231 720.153 258.382 720.153C257.366 720.153 256.543 719.757 255.912 718.963C255.286 718.17 254.973 717.118 254.973 715.805V715.708ZM257.234 715.875C257.234 716.64 257.387 717.241 257.693 717.677C258.004 718.112 258.426 718.33 258.959 718.33C259.646 718.33 260.14 718.071 260.441 717.551V713.997C260.135 713.482 259.646 713.224 258.973 713.224C258.435 713.224 258.011 713.447 257.7 713.892C257.389 714.333 257.234 714.994 257.234 715.875ZM267.599 716.807L269.164 711.548H271.585L268.19 721.315L268.002 721.76C267.497 722.864 266.662 723.416 265.498 723.416C265.173 723.416 264.842 723.365 264.503 723.263V721.551L264.844 721.565C265.271 721.565 265.589 721.498 265.797 721.363C266.011 721.234 266.178 721.018 266.298 720.717L266.562 720.021L263.599 711.548H266.034L267.599 716.807ZM282.714 720H280.453V711.297L277.761 712.132V710.296L282.471 708.612H282.714V720ZM292.541 708.508V710.365H292.319C291.299 710.384 290.478 710.65 289.856 711.165C289.235 711.68 288.861 712.397 288.736 713.315C289.339 712.698 290.102 712.39 291.025 712.39C292.013 712.39 292.799 712.744 293.383 713.454C293.968 714.163 294.26 715.096 294.26 716.25C294.26 716.988 294.1 717.658 293.78 718.261C293.46 718.859 293.005 719.325 292.416 719.659C291.832 719.988 291.169 720.153 290.427 720.153C289.23 720.153 288.263 719.738 287.526 718.908C286.788 718.073 286.42 716.96 286.42 715.569V714.755C286.42 713.521 286.652 712.434 287.115 711.492C287.584 710.546 288.254 709.813 289.126 709.294C290.002 708.774 291.016 708.512 292.166 708.508H292.541ZM290.336 714.205C289.97 714.205 289.638 714.3 289.341 714.49C289.045 714.681 288.827 714.931 288.688 715.242V715.93C288.688 716.686 288.836 717.278 289.133 717.704C289.43 718.126 289.847 718.337 290.385 718.337C290.867 718.337 291.257 718.147 291.554 717.767C291.855 717.382 292.006 716.883 292.006 716.271C292.006 715.654 291.855 715.156 291.554 714.776C291.252 714.395 290.846 714.205 290.336 714.205ZM295.892 718.741C295.892 718.356 296.022 718.043 296.282 717.802C296.542 717.561 296.869 717.44 297.263 717.44C297.662 717.44 297.991 717.561 298.251 717.802C298.51 718.043 298.64 718.356 298.64 718.741C298.64 719.121 298.51 719.432 298.251 719.673C297.996 719.91 297.666 720.028 297.263 720.028C296.864 720.028 296.535 719.91 296.275 719.673C296.02 719.432 295.892 719.121 295.892 718.741ZM307.091 715.722H308.385V717.537H307.091V720H304.837V717.537H300.169L300.072 716.118L304.809 708.626H307.091V715.722ZM302.319 715.722H304.837V711.701L304.684 711.958L302.319 715.722Z" fill="white"/>
<path d="M224.52 735.586H228.25V737H222.762V728.47H224.52V735.586ZM230.929 737H229.233V730.661H230.929V737ZM229.129 729.017C229.129 728.763 229.214 728.555 229.384 728.391C229.555 728.228 229.786 728.146 230.078 728.146C230.367 728.146 230.597 728.228 230.767 728.391C230.941 728.555 231.028 728.763 231.028 729.017C231.028 729.278 230.941 729.49 230.767 729.654C230.593 729.817 230.363 729.899 230.078 729.899C229.793 729.899 229.563 729.817 229.39 729.654C229.216 729.49 229.129 729.278 229.129 729.017ZM233.918 730.661L233.97 731.37C234.419 730.817 235.026 730.541 235.791 730.541C236.608 730.541 237.17 730.864 237.476 731.511C237.921 730.864 238.556 730.541 239.381 730.541C240.066 730.541 240.577 730.743 240.914 731.146C241.252 731.546 241.421 732.148 241.421 732.951V737H239.72V732.957C239.72 732.598 239.648 732.336 239.506 732.169C239.367 732.002 239.12 731.918 238.765 731.918C238.257 731.918 237.906 732.162 237.711 732.649L237.716 737H236.021V732.962C236.021 732.597 235.948 732.332 235.801 732.169C235.659 732.002 235.414 731.918 235.066 731.918C234.586 731.918 234.238 732.118 234.022 732.518V737H232.332V730.661H233.918ZM244.499 737H242.803V730.661H244.499V737ZM242.699 729.017C242.699 728.763 242.784 728.555 242.955 728.391C243.125 728.228 243.356 728.146 243.649 728.146C243.937 728.146 244.167 728.228 244.337 728.391C244.511 728.555 244.598 728.763 244.598 729.017C244.598 729.278 244.511 729.49 244.337 729.654C244.163 729.817 243.934 729.899 243.649 729.899C243.363 729.899 243.134 729.817 242.96 729.654C242.786 729.49 242.699 729.278 242.699 729.017ZM247.927 729.101V730.661H249.012V731.903H247.927V735.064C247.927 735.301 247.972 735.47 248.062 735.57C248.153 735.671 248.325 735.722 248.579 735.722C248.767 735.722 248.932 735.708 249.074 735.68V736.963C248.744 737.064 248.403 737.115 248.052 737.115C246.862 737.115 246.257 736.517 246.236 735.32V731.903H245.307V730.661H246.236V729.101H247.927ZM259.365 737H253.517V735.842L256.277 732.899C256.656 732.485 256.936 732.123 257.117 731.814C257.301 731.504 257.393 731.212 257.393 730.937C257.393 730.558 257.296 730.261 257.101 730.045C256.91 729.826 256.637 729.717 256.282 729.717C255.899 729.717 255.597 729.849 255.374 730.113C255.155 730.377 255.045 730.723 255.045 731.151H253.35C253.35 730.633 253.473 730.16 253.72 729.732C253.967 729.301 254.317 728.963 254.769 728.72C255.224 728.473 255.739 728.35 256.313 728.35C257.193 728.35 257.875 728.562 258.358 728.986C258.845 729.407 259.089 730.002 259.089 730.77C259.089 731.191 258.979 731.621 258.76 732.059C258.541 732.497 258.167 733.007 257.638 733.588L255.698 735.633H259.365V737ZM266.152 733.473C266.152 734.652 265.906 735.555 265.416 736.181C264.929 736.803 264.214 737.115 263.272 737.115C262.343 737.115 261.632 736.809 261.138 736.197C260.647 735.584 260.397 734.706 260.386 733.562V731.991C260.386 730.798 260.633 729.894 261.127 729.278C261.621 728.659 262.332 728.35 263.261 728.35C264.19 728.35 264.899 728.656 265.39 729.268C265.884 729.88 266.138 730.758 266.152 731.903V733.473ZM264.456 731.751C264.456 731.042 264.359 730.527 264.164 730.207C263.972 729.883 263.672 729.722 263.261 729.722C262.865 729.722 262.571 729.875 262.379 730.181C262.192 730.487 262.091 730.967 262.077 731.621V733.697C262.077 734.393 262.171 734.91 262.359 735.247C262.55 735.584 262.854 735.753 263.272 735.753C263.686 735.753 263.985 735.591 264.169 735.268C264.353 734.941 264.449 734.443 264.456 733.776V731.751Z" fill="white" fill-opacity="0.5"/>
<g filter="url(#filter10_f_57_51)">
<rect x="38.0015" y="503.052" width="6.21268" height="15" rx="3.10634" transform="rotate(-84.2778 38.0015 503.052)" fill="url(#paint10_linear_57_51)" fill-opacity="0.2"/>
<rect x="44.0771" y="470.611" width="6.06844" height="15" rx="3.03422" transform="rotate(-72.2778 44.0771 470.611)" fill="url(#paint11_linear_57_51)" fill-opacity="0.3"/>
<rect x="56.8031" y="440.106" width="5.82472" height="15" rx="2.91236" transform="rotate(-60.2778 56.8031 440.106)" fill="url(#paint12_linear_57_51)" fill-opacity="0.4"/>
<rect x="75.6333" y="412.906" width="5.52369" height="15" rx="2.76185" transform="rotate(-48.2778 75.6333 412.906)" fill="url(#paint13_linear_57_51)" fill-opacity="0.45"/>
<rect x="99.7303" y="390.238" width="5.21747" height="15" rx="2.60874" transform="rotate(-36.2779 99.7303 390.238)" fill="url(#paint14_linear_57_51)" fill-opacity="0.5"/>
<rect x="128.008" y="373.113" width="4.95909" height="15" rx="2.47954" transform="rotate(-24.2778 128.008 373.113)" fill="url(#paint15_linear_57_51)" fill-opacity="0.55"/>
<rect x="159.192" y="362.276" width="4.79323" height="15" rx="2.39661" transform="rotate(-12.2778 159.192 362.276)" fill="url(#paint16_linear_57_51)" fill-opacity="0.6"/>
<rect x="191.888" y="358.178" width="4.74851" height="15" rx="2.37425" transform="rotate(-0.277842 191.888 358.178)" fill="url(#paint17_linear_57_51)" fill-opacity="0.65"/>
<rect x="224.659" y="360.958" width="4.83255" height="15" rx="2.41627" transform="rotate(11.7221 224.659 360.958)" fill="url(#paint18_linear_57_51)" fill-opacity="0.7"/>
<rect x="256.086" y="370.46" width="5.03077" height="15" rx="2.51539" transform="rotate(23.7221 256.086 370.46)" fill="url(#paint19_linear_57_51)" fill-opacity="0.75"/>
<rect x="284.828" y="386.247" width="5.30895" height="15" rx="2.65447" transform="rotate(35.7222 284.828 386.247)" fill="url(#paint20_linear_57_51)" fill-opacity="0.8"/>
<rect x="309.669" y="407.631" width="5.61905" height="15" rx="2.80953" transform="rotate(47.7222 309.669 407.631)" fill="url(#paint21_linear_57_51)" fill-opacity="0.85"/>
<rect x="329.553" y="433.703" width="5.90754" height="15" rx="2.95377" transform="rotate(59.7221 329.553 433.703)" fill="url(#paint22_linear_57_51)" fill-opacity="0.95"/>
<rect x="343.62" y="463.36" width="6.12455" height="15" rx="3.06227" transform="rotate(71.7221 343.62 463.36)" fill="url(#paint23_linear_57_51)"/>
<rect x="351.241" y="495.344" width="6.2325" height="15" rx="3.11625" transform="rotate(83.7222 351.241 495.344)" fill="url(#paint24_linear_57_51)"/>
</g>
<rect x="38.0015" y="503.052" width="6.21268" height="15" rx="3.10634" transform="rotate(-84.2778 38.0015 503.052)" fill="url(#paint25_linear_57_51)" fill-opacity="0.2"/>
<rect x="44.0771" y="470.611" width="6.06844" height="15" rx="3.03422" transform="rotate(-72.2778 44.0771 470.611)" fill="url(#paint26_linear_57_51)" fill-opacity="0.3"/>
<rect x="56.8031" y="440.106" width="5.82472" height="15" rx="2.91236" transform="rotate(-60.2778 56.8031 440.106)" fill="url(#paint27_linear_57_51)" fill-opacity="0.4"/>
<rect x="75.6333" y="412.906" width="5.52369" height="15" rx="2.76185" transform="rotate(-48.2778 75.6333 412.906)" fill="url(#paint28_linear_57_51)" fill-opacity="0.45"/>
<rect x="99.7303" y="390.238" width="5.21747" height="15" rx="2.60874" transform="rotate(-36.2779 99.7303 390.238)" fill="url(#paint29_linear_57_51)" fill-opacity="0.5"/>
<rect x="128.008" y="373.113" width="4.95909" height="15" rx="2.47954" transform="rotate(-24.2778 128.008 373.113)" fill="url(#paint30_linear_57_51)" fill-opacity="0.55"/>
<rect x="159.192" y="362.276" width="4.79323" height="15" rx="2.39661" transform="rotate(-12.2778 159.192 362.276)" fill="url(#paint31_linear_57_51)" fill-opacity="0.6"/>
<rect x="191.888" y="358.178" width="4.74851" height="15" rx="2.37425" transform="rotate(-0.277842 191.888 358.178)" fill="url(#paint32_linear_57_51)" fill-opacity="0.65"/>
<rect x="224.659" y="360.958" width="4.83255" height="15" rx="2.41627" transform="rotate(11.7221 224.659 360.958)" fill="url(#paint33_linear_57_51)" fill-opacity="0.7"/>
<rect x="256.086" y="370.46" width="5.03077" height="15" rx="2.51539" transform="rotate(23.7221 256.086 370.46)" fill="url(#paint34_linear_57_51)" fill-opacity="0.75"/>
<rect x="284.828" y="386.247" width="5.30895" height="15" rx="2.65447" transform="rotate(35.7222 284.828 386.247)" fill="url(#paint35_linear_57_51)" fill-opacity="0.8"/>
<rect x="309.669" y="407.631" width="5.61905" height="15" rx="2.80953" transform="rotate(47.7222 309.669 407.631)" fill="url(#paint36_linear_57_51)" fill-opacity="0.85"/>
<rect x="329.553" y="433.703" width="5.90754" height="15" rx="2.95377" transform="rotate(59.7221 329.553 433.703)" fill="url(#paint37_linear_57_51)" fill-opacity="0.95"/>
<rect x="343.62" y="463.36" width="6.12455" height="15" rx="3.06227" transform="rotate(71.7221 343.62 463.36)" fill="url(#paint38_linear_57_51)"/>
<rect x="351.241" y="495.344" width="6.2325" height="15" rx="3.11625" transform="rotate(83.7222 351.241 495.344)" fill="url(#paint39_linear_57_51)"/>
<g filter="url(#filter11_f_57_51)">
<rect x="1" y="211" width="389" height="21" rx="10.5" fill="url(#paint40_linear_57_51)" fill-opacity="0.5"/>
</g>
<rect y="211" width="390" height="21" rx="10.5" fill="url(#paint41_linear_57_51)"/>
<rect y="253" width="389" height="5" fill="url(#paint42_linear_57_51)"/>
<g filter="url(#filter12_b_57_51)">
<rect y="211" width="390" height="21" rx="10.5" fill="url(#paint43_linear_57_51)" fill-opacity="0.1"/>
<rect x="2.12" y="213.12" width="385.76" height="16.76" rx="8.38" stroke="white" stroke-opacity="0.2" stroke-width="4.24"/>
</g>
<g filter="url(#filter13_d_57_51)">
<path d="M123.128 210.667C115.764 210.693 109.816 216.683 109.842 224.047C109.868 231.411 115.858 237.359 123.222 237.333C130.586 237.307 136.534 231.317 136.508 223.953C136.482 216.589 130.492 210.641 123.128 210.667ZM120.61 255.144C120.607 256.525 121.724 257.647 123.105 257.65C124.486 257.652 125.607 256.535 125.61 255.155L120.61 255.144ZM120.675 223.995L120.61 255.144L125.61 255.155L125.675 224.005L120.675 223.995Z" fill="#EBF2F6"/>
</g>
<circle cx="123.25" cy="224.25" r="4.25" fill="#4DFE43"/>
<rect x="40" y="124" width="306" height="54" rx="27" fill="#081A28" fill-opacity="0.5"/>
<g filter="url(#filter14_bii_57_51)">
<rect x="41" y="124" width="306" height="54" rx="27" fill="#081A28" fill-opacity="0.047"/>
</g>
<g filter="url(#filter15_f_57_51)">
<circle cx="230" cy="153" r="19" fill="url(#paint44_linear_57_51)"/>
<circle cx="230" cy="153" r="19" fill="url(#paint45_linear_57_51)"/>
</g>
<circle cx="230" cy="153" r="19" fill="url(#paint46_linear_57_51)"/>
<circle cx="230" cy="153" r="19" fill="url(#paint47_linear_57_51)"/>
<path d="M93.2701 151.72V149C93.254 148.51 93.0658 148.04 92.7385 147.675C92.4113 147.309 91.9657 147.07 91.4801 147V138.48C91.4801 138.347 91.4274 138.22 91.3336 138.126C91.2398 138.033 91.1127 137.98 90.9801 137.98C90.8474 137.98 90.7203 138.033 90.6265 138.126C90.5327 138.22 90.4801 138.347 90.4801 138.48V147C89.9944 147.07 89.5489 147.309 89.2216 147.675C88.8943 148.04 88.7061 148.51 88.6901 149V151.77C86.8953 152.274 85.3135 153.349 84.184 154.832C83.0545 156.315 82.4388 158.126 82.4301 159.99C82.4301 160.117 82.4806 160.239 82.5706 160.329C82.6607 160.419 82.7827 160.47 82.9101 160.47H85.7901C86.1619 161.541 86.87 162.464 87.8089 163.1C88.7478 163.736 89.8671 164.052 91.0001 164C92.1324 164.04 93.2474 163.713 94.1789 163.068C95.1105 162.423 95.8089 161.494 96.1701 160.42H99.0501C99.1774 160.42 99.2994 160.369 99.3895 160.279C99.4795 160.189 99.5301 160.067 99.5301 159.94C99.5213 158.076 98.9056 156.265 97.7761 154.782C96.6466 153.299 95.0648 152.224 93.2701 151.72ZM91.0001 163C90.1205 163.035 89.2508 162.804 88.505 162.336C87.7591 161.869 87.1719 161.187 86.8201 160.38H95.1801C94.8282 161.187 94.241 161.869 93.4951 162.336C92.7493 162.804 91.8796 163.035 91.0001 163ZM95.8101 159.42H83.4501C83.563 157.794 84.1939 156.246 85.2502 155.005C86.3066 153.763 87.7328 152.892 89.3201 152.52C89.4267 152.497 89.522 152.437 89.5895 152.351C89.657 152.266 89.6925 152.159 89.6901 152.05V149C89.7438 148.7 89.9082 148.43 90.1507 148.245C90.3932 148.06 90.6962 147.973 91.0001 148C91.3039 147.973 91.6069 148.06 91.8494 148.245C92.0919 148.43 92.2563 148.7 92.3101 149V152.14C92.3076 152.249 92.3431 152.356 92.4106 152.441C92.4781 152.527 92.5734 152.587 92.6801 152.61C94.2673 152.982 95.6936 153.853 96.7499 155.095C97.8063 156.336 98.4371 157.884 98.5501 159.51L95.8101 159.42Z" fill="white" fill-opacity="0.9"/>
<path d="M297.27 151.72V149C297.254 148.51 297.066 148.04 296.739 147.675C296.411 147.309 295.966 147.07 295.48 147V138.48C295.48 138.347 295.427 138.22 295.334 138.126C295.24 138.033 295.113 137.98 294.98 137.98C294.847 137.98 294.72 138.033 294.627 138.126C294.533 138.22 294.48 138.347 294.48 138.48V147C293.994 147.07 293.549 147.309 293.222 147.675C292.894 148.04 292.706 148.51 292.69 149V151.77C290.895 152.274 289.313 153.349 288.184 154.832C287.055 156.315 286.439 158.126 286.43 159.99C286.43 160.117 286.481 160.239 286.571 160.329C286.661 160.419 286.783 160.47 286.91 160.47H289.79C290.162 161.541 290.87 162.464 291.809 163.1C292.748 163.736 293.867 164.052 295 164C296.132 164.04 297.247 163.713 298.179 163.068C299.111 162.423 299.809 161.494 300.17 160.42H303.05C303.177 160.42 303.299 160.369 303.389 160.279C303.479 160.189 303.53 160.067 303.53 159.94C303.521 158.076 302.906 156.265 301.776 154.782C300.647 153.299 299.065 152.224 297.27 151.72ZM295 163C294.12 163.035 293.251 162.804 292.505 162.336C291.759 161.869 291.172 161.187 290.82 160.38H299.18C298.828 161.187 298.241 161.869 297.495 162.336C296.749 162.804 295.88 163.035 295 163ZM299.81 159.42H287.45C287.563 157.794 288.194 156.246 289.25 155.005C290.307 153.763 291.733 152.892 293.32 152.52C293.427 152.497 293.522 152.437 293.589 152.351C293.657 152.266 293.693 152.159 293.69 152.05V149C293.744 148.7 293.908 148.43 294.151 148.245C294.393 148.06 294.696 147.973 295 148C295.304 147.973 295.607 148.06 295.849 148.245C296.092 148.43 296.256 148.7 296.31 149V152.14C296.308 152.249 296.343 152.356 296.411 152.441C296.478 152.527 296.573 152.587 296.68 152.61C298.267 152.982 299.694 153.853 300.75 155.095C301.806 156.336 302.437 157.884 302.55 159.51L299.81 159.42Z" fill="white" fill-opacity="0.9"/>
<path d="M169.24 150.26L164 138.29C163.964 138.206 163.904 138.133 163.828 138.082C163.751 138.031 163.662 138.002 163.57 138H153.57C153.471 138.001 153.375 138.032 153.294 138.089C153.214 138.146 153.153 138.227 153.12 138.32L148.71 150.32C148.685 150.393 148.677 150.471 148.687 150.547C148.698 150.624 148.726 150.697 148.77 150.76C148.813 150.824 148.872 150.876 148.939 150.913C149.007 150.949 149.083 150.969 149.16 150.97H156.3V153.27H155.6C155.192 153.274 154.791 153.375 154.431 153.567C154.07 153.758 153.761 154.034 153.53 154.37C153.24 154.776 153.051 155.246 152.978 155.739C152.905 156.233 152.95 156.737 153.11 157.21L155.28 163.7C155.31 163.796 155.37 163.88 155.451 163.939C155.532 163.998 155.63 164.03 155.73 164.03H162.27C162.37 164.03 162.468 163.998 162.549 163.939C162.63 163.88 162.69 163.796 162.72 163.7L164.89 157.21C165.05 156.737 165.095 156.233 165.022 155.739C164.949 155.246 164.76 154.776 164.47 154.37C164.239 154.034 163.93 153.758 163.57 153.567C163.209 153.375 162.808 153.274 162.4 153.27H161.66V150.97H168.8C168.88 150.97 168.959 150.95 169.029 150.912C169.099 150.873 169.158 150.818 169.2 150.75C169.248 150.679 169.277 150.596 169.284 150.51C169.291 150.424 169.276 150.338 169.24 150.26ZM162.4 154.2C162.657 154.202 162.91 154.268 163.135 154.392C163.36 154.516 163.551 154.694 163.69 154.91C163.896 155.195 164.029 155.527 164.078 155.875C164.127 156.224 164.09 156.579 163.97 156.91L161.97 163.08H156.08L154 156.87C153.88 156.539 153.843 156.184 153.892 155.835C153.941 155.487 154.074 155.155 154.28 154.87C154.419 154.654 154.61 154.476 154.835 154.352C155.061 154.228 155.313 154.162 155.57 154.16H162.37L162.4 154.2ZM157.3 153.2V150.9H160.7V153.2H157.3ZM161.18 150H149.89L154 139H163.31L168.11 150H161.18Z" fill="white"/>
<path d="M236.858 140.649C234.423 138.865 231.217 138.155 228.065 138.701C223.821 139.435 220.412 142.62 219.775 146.445C219.256 149.567 220.504 152.685 223.113 154.785C224.289 155.732 224.998 157.095 225.111 158.624C225.113 158.652 225.119 158.679 225.126 158.705V163.501C225.126 163.765 225.366 163.979 225.664 163.979H226.2C226.419 165.369 227.568 166.434 228.952 166.434H231.395C232.78 166.434 233.929 165.369 234.147 163.979H234.683C234.98 163.979 235.221 163.765 235.221 163.501V158.629C235.221 158.628 235.222 158.627 235.222 158.626C235.222 157.203 235.949 155.829 237.269 154.757C239.443 152.991 240.69 150.479 240.69 147.866C240.691 145.063 239.294 142.433 236.858 140.649ZM228.271 149.726H227.444C226.988 149.726 226.617 149.397 226.617 148.991C226.617 148.586 226.988 148.256 227.444 148.256C227.9 148.256 228.271 148.586 228.271 148.991V149.726ZM232.077 148.991C232.077 148.586 232.448 148.256 232.904 148.256C233.36 148.256 233.731 148.586 233.731 148.991C233.731 149.397 233.36 149.726 232.904 149.726H232.078L232.077 148.991ZM231.753 159.07H234.146V163.023H233.653C233.652 163.023 233.651 163.022 233.65 163.022C233.648 163.022 233.647 163.023 233.646 163.023H226.702C226.7 163.023 226.699 163.022 226.698 163.022C226.697 163.022 226.696 163.023 226.694 163.023H226.202V159.07H231.356M229.347 158.113V150.683H231.003L231.016 158.113H229.347ZM231.395 165.477H228.952C228.149 165.477 227.475 164.838 227.289 163.979H233.058C232.872 164.838 232.198 165.477 231.395 165.477ZM236.543 154.051C235.154 155.179 234.332 156.606 234.178 158.113H232.092L232.08 150.683H232.904C233.953 150.683 234.807 149.924 234.807 148.991C234.807 148.059 233.953 147.3 232.904 147.3C231.854 147.3 231.001 148.059 231.001 148.992L231.002 149.726H229.347V148.991C229.347 148.059 228.493 147.3 227.444 147.3C226.395 147.3 225.541 148.059 225.541 148.991C225.541 149.924 226.395 150.683 227.444 150.683H228.271V158.113H226.129C225.901 156.517 225.101 155.095 223.835 154.076C221.493 152.19 220.374 149.39 220.84 146.585C221.411 143.154 224.466 140.298 228.27 139.639C231.107 139.149 233.987 139.785 236.173 141.387C238.36 142.989 239.614 145.35 239.614 147.866C239.615 150.211 238.495 152.466 236.543 154.051Z" fill="white"/>
</g>
<defs>
<filter id="filter0_f_57_51" x="-18" y="74" width="420" height="95" filterUnits="userSpaceOnUse" color-interpolation-filters="sRGB">
<feFlood flood-opacity="0" result="BackgroundImageFix"/>
<feBlend mode="normal" in="SourceGraphic" in2="BackgroundImageFix" result="shape"/>
<feGaussianBlur stdDeviation="7.5" result="effect1_foregroundBlur_57_51"/>
</filter>
<filter id="filter1_d_57_51" x="77.6283" y="391.144" width="159.373" height="146.113" filterUnits="userSpaceOnUse" color-interpolation-filters="sRGB">
<feFlood flood-opacity="0" result="BackgroundImageFix"/>
<feColorMatrix in="SourceAlpha" type="matrix" values="0 0 0 0 0 0 0 0 0 0 0 0 0 0 0 0 0 0 127 0" result="hardAlpha"/>
<feOffset dy="4"/>
<feGaussianBlur stdDeviation="2"/>
<feComposite in2="hardAlpha" operator="out"/>
<feColorMatrix type="matrix" values="0 0 0 0 0 0 0 0 0 0 0 0 0 0 0 0 0 0 0.25 0"/>
<feBlend mode="normal" in2="BackgroundImageFix" result="effect1_dropShadow_57_51"/>
<feBlend mode="normal" in="SourceGraphic" in2="effect1_dropShadow_57_51" result="shape"/>
</filter>
<filter id="filter2_f_57_51" x="68.1815" y="377.743" width="177.819" height="164.354" filterUnits="userSpaceOnUse" color-interpolation-filters="sRGB">
<feFlood flood-opacity="0" result="BackgroundImageFix"/>
<feBlend mode="normal" in="SourceGraphic" in2="BackgroundImageFix" result="shape"/>
<feGaussianBlur stdDeviation="7.5" result="effect1_foregroundBlur_57_51"/>
</filter>
<filter id="filter3_f_57_51" x="90" y="400" width="213" height="213" filterUnits="userSpaceOnUse" color-interpolation-filters="sRGB">
<feFlood flood-opacity="0" result="BackgroundImageFix"/>
<feBlend mode="normal" in="SourceGraphic" in2="BackgroundImageFix" result="shape"/>
<feGaussianBlur stdDeviation="2" result="effect1_foregroundBlur_57_51"/>
</filter>
<filter id="filter4_f_57_51" x="85.9404" y="395.94" width="220" height="220" filterUnits="userSpaceOnUse" color-interpolation-filters="sRGB">
<feFlood flood-opacity="0" result="BackgroundImageFix"/>
<feBlend mode="normal" in="SourceGraphic" in2="BackgroundImageFix" result="shape"/>
<feGaussianBlur stdDeviation="7.5" result="effect1_foregroundBlur_57_51"/>
</filter>
<filter id="filter5_d_57_51" x="102.891" y="415.891" width="188" height="188" filterUnits="userSpaceOnUse" color-interpolation-filters="sRGB">
<feFlood flood-opacity="0" result="BackgroundImageFix"/>
<feColorMatrix in="SourceAlpha" type="matrix" values="0 0 0 0 0 0 0 0 0 0 0 0 0 0 0 0 0 0 127 0" result="hardAlpha"/>
<feOffset dy="4"/>
<feGaussianBlur stdDeviation="2"/>
<feComposite in2="hardAlpha" operator="out"/>
<feColorMatrix type="matrix" values="0 0 0 0 0 0 0 0 0 0 0 0 0 0 0 0 0 0 0.25 0"/>
<feBlend mode="normal" in2="BackgroundImageFix" result="effect1_dropShadow_57_51"/>
<feBlend mode="normal" in="SourceGraphic" in2="effect1_dropShadow_57_51" result="shape"/>
</filter>
<filter id="filter6_d_57_51" x="213.944" y="386.944" width="38.0038" height="38.0037" filterUnits="userSpaceOnUse" color-interpolation-filters="sRGB">
<feFlood flood-opacity="0" result="BackgroundImageFix"/>
<feColorMatrix in="SourceAlpha" type="matrix" values="0 0 0 0 0 0 0 0 0 0 0 0 0 0 0 0 0 0 127 0" result="hardAlpha"/>
<feOffset dy="4"/>
<feGaussianBlur stdDeviation="2"/>
<feComposite in2="hardAlpha" operator="out"/>
<feColorMatrix type="matrix" values="0 0 0 0 0 0 0 0 0 0 0 0 0 0 0 0 0 0 0.25 0"/>
<feBlend mode="normal" in2="BackgroundImageFix" result="effect1_dropShadow_57_51"/>
<feBlend mode="normal" in="SourceGraphic" in2="effect1_dropShadow_57_51" result="shape"/>
</filter>
<filter id="filter7_f_57_51" x="20" y="687" width="167" height="81" filterUnits="userSpaceOnUse" color-interpolation-filters="sRGB">
<feFlood flood-opacity="0" result="BackgroundImageFix"/>
<feBlend mode="normal" in="SourceGraphic" in2="BackgroundImageFix" result="shape"/>
<feGaussianBlur stdDeviation="2" result="effect1_foregroundBlur_57_51"/>
</filter>
<filter id="filter8_f_57_51" x="203" y="687" width="167" height="81" filterUnits="userSpaceOnUse" color-interpolation-filters="sRGB">
<feFlood flood-opacity="0" result="BackgroundImageFix"/>
<feBlend mode="normal" in="SourceGraphic" in2="BackgroundImageFix" result="shape"/>
<feGaussianBlur stdDeviation="2" result="effect1_foregroundBlur_57_51"/>
</filter>
<filter id="filter9_bii_57_51" x="99.8667" y="734.867" width="26.2667" height="26.2667" filterUnits="userSpaceOnUse" color-interpolation-filters="sRGB">
<feFlood flood-opacity="0" result="BackgroundImageFix"/>
<feGaussianBlur in="BackgroundImageFix" stdDeviation="1.06667"/>
<feComposite in2="SourceAlpha" operator="in" result="effect1_backgroundBlur_57_51"/>
<feBlend mode="normal" in="SourceGraphic" in2="effect1_backgroundBlur_57_51" result="shape"/>
<feColorMatrix in="SourceAlpha" type="matrix" values="0 0 0 0 0 0 0 0 0 0 0 0 0 0 0 0 0 0 127 0" result="hardAlpha"/>
<feOffset dx="-1.06667" dy="1.06667"/>
<feGaussianBlur stdDeviation="0.533333"/>
<feComposite in2="hardAlpha" operator="arithmetic" k2="-1" k3="1"/>
<feColorMatrix type="matrix" values="0 0 0 0 1 0 0 0 0 1 0 0 0 0 1 0 0 0 0.1 0"/>
<feBlend mode="normal" in2="shape" result="effect2_innerShadow_57_51"/>
<feColorMatrix in="SourceAlpha" type="matrix" values="0 0 0 0 0 0 0 0 0 0 0 0 0 0 0 0 0 0 127 0" result="hardAlpha"/>
<feOffset dx="1.06667" dy="-1.06667"/>
<feGaussianBlur stdDeviation="0.533333"/>
<feComposite in2="hardAlpha" operator="arithmetic" k2="-1" k3="1"/>
<feColorMatrix type="matrix" values="0 0 0 0 0.0422684 0 0 0 0 0.470093 0 0 0 0 0.615917 0 0 0 0.1 0"/>
<feBlend mode="normal" in2="effect2_innerShadow_57_51" result="effect3_innerShadow_57_51"/>
</filter>
<filter id="filter10_f_57_51" x="30.2954" y="350.166" width="329.305" height="162.087" filterUnits="userSpaceOnUse" color-interpolation-filters="sRGB">
<feFlood flood-opacity="0" result="BackgroundImageFix"/>
<feBlend mode="normal" in="SourceGraphic" in2="BackgroundImageFix" result="shape"/>
<feGaussianBlur stdDeviation="4" result="effect1_foregroundBlur_57_51"/>
</filter>
<filter id="filter11_f_57_51" x="-14" y="196" width="419" height="51" filterUnits="userSpaceOnUse" color-interpolation-filters="sRGB">
<feFlood flood-opacity="0" result="BackgroundImageFix"/>
<feBlend mode="normal" in="SourceGraphic" in2="BackgroundImageFix" result="shape"/>
<feGaussianBlur stdDeviation="7.5" result="effect1_foregroundBlur_57_51"/>
</filter>
<filter id="filter12_b_57_51" x="-28.2667" y="182.733" width="446.533" height="77.5333" filterUnits="userSpaceOnUse" color-interpolation-filters="sRGB">
<feFlood flood-opacity="0" result="BackgroundImageFix"/>
<feGaussianBlur in="BackgroundImageFix" stdDeviation="14.1333"/>
<feComposite in2="SourceAlpha" operator="in" result="effect1_backgroundBlur_57_51"/>
<feBlend mode="normal" in="SourceGraphic" in2="effect1_backgroundBlur_57_51" result="shape"/>
</filter>
<filter id="filter13_d_57_51" x="105.842" y="210.667" width="34.6667" height="54.9829" filterUnits="userSpaceOnUse" color-interpolation-filters="sRGB">
<feFlood flood-opacity="0" result="BackgroundImageFix"/>
<feColorMatrix in="SourceAlpha" type="matrix" values="0 0 0 0 0 0 0 0 0 0 0 0 0 0 0 0 0 0 127 0" result="hardAlpha"/>
<feOffset dy="4"/>
<feGaussianBlur stdDeviation="2"/>
<feComposite in2="hardAlpha" operator="out"/>
<feColorMatrix type="matrix" values="0 0 0 0 0 0 0 0 0 0 0 0 0 0 0 0 0 0 0.25 0"/>
<feBlend mode="normal" in2="BackgroundImageFix" result="effect1_dropShadow_57_51"/>
<feBlend mode="normal" in="SourceGraphic" in2="effect1_dropShadow_57_51" result="shape"/>
</filter>
<filter id="filter14_bii_57_51" x="28.76" y="111.76" width="330.48" height="78.48" filterUnits="userSpaceOnUse" color-interpolation-filters="sRGB">
<feFlood flood-opacity="0" result="BackgroundImageFix"/>
<feGaussianBlur in="BackgroundImageFix" stdDeviation="6.12"/>
<feComposite in2="SourceAlpha" operator="in" result="effect1_backgroundBlur_57_51"/>
<feBlend mode="normal" in="SourceGraphic" in2="effect1_backgroundBlur_57_51" result="shape"/>
<feColorMatrix in="SourceAlpha" type="matrix" values="0 0 0 0 0 0 0 0 0 0 0 0 0 0 0 0 0 0 127 0" result="hardAlpha"/>
<feOffset dx="-12" dy="12"/>
<feGaussianBlur stdDeviation="6"/>
<feComposite in2="hardAlpha" operator="arithmetic" k2="-1" k3="1"/>
<feColorMatrix type="matrix" values="0 0 0 0 1 0 0 0 0 1 0 0 0 0 1 0 0 0 0.047 0"/>
<feBlend mode="normal" in2="shape" result="effect2_innerShadow_57_51"/>
<feColorMatrix in="SourceAlpha" type="matrix" values="0 0 0 0 0 0 0 0 0 0 0 0 0 0 0 0 0 0 127 0" result="hardAlpha"/>
<feOffset dx="12" dy="-12"/>
<feGaussianBlur stdDeviation="6"/>
<feComposite in2="hardAlpha" operator="arithmetic" k2="-1" k3="1"/>
<feColorMatrix type="matrix" values="0 0 0 0 0.0235653 0 0 0 0 0.0785471 0 0 0 0 0.120333 0 0 0 0.047 0"/>
<feBlend mode="normal" in2="effect2_innerShadow_57_51" result="effect3_innerShadow_57_51"/>
</filter>
<filter id="filter15_f_57_51" x="207" y="130" width="46" height="46" filterUnits="userSpaceOnUse" color-interpolation-filters="sRGB">
<feFlood flood-opacity="0" result="BackgroundImageFix"/>
<feBlend mode="normal" in="SourceGraphic" in2="BackgroundImageFix" result="shape"/>
<feGaussianBlur stdDeviation="2" result="effect1_foregroundBlur_57_51"/>
</filter>
<linearGradient id="paint0_linear_57_51" x1="5.99999" y1="89" x2="387" y2="154" gradientUnits="userSpaceOnUse">
<stop stop-color="#2E6CD8"/>
<stop offset="1" stop-color="#00F0FF"/>
</linearGradient>
<linearGradient id="paint1_linear_57_51" x1="158.937" y1="408.414" x2="159.626" y2="513.733" gradientUnits="userSpaceOnUse">
<stop stop-color="#2E6CD8"/>
<stop offset="1" stop-color="#4FE09F"/>
</linearGradient>
<linearGradient id="paint2_linear_57_51" x1="159.118" y1="399.471" x2="159.848" y2="511.092" gradientUnits="userSpaceOnUse">
<stop stop-color="#2E6CD8"/>
<stop offset="1" stop-color="#4FE09F"/>
</linearGradient>
<linearGradient id="paint3_linear_57_51" x1="195.941" y1="410.941" x2="195.941" y2="600.941" gradientUnits="userSpaceOnUse">
<stop stop-color="#2E6CD8"/>
<stop offset="1" stop-color="#4FE09F"/>
</linearGradient>
<linearGradient id="paint4_linear_57_51" x1="33.5" y1="700.5" x2="183" y2="764" gradientUnits="userSpaceOnUse">
<stop stop-color="#2E6CD8"/>
<stop offset="1" stop-color="#4FE09F"/>
</linearGradient>
<linearGradient id="paint5_linear_57_51" x1="216.5" y1="700.5" x2="366" y2="764" gradientUnits="userSpaceOnUse">
<stop stop-color="#2E6CD8"/>
<stop offset="1" stop-color="#4FE09F"/>
</linearGradient>
<linearGradient id="paint6_linear_57_51" x1="33.5" y1="700.5" x2="183" y2="764" gradientUnits="userSpaceOnUse">
<stop stop-color="#1C4C9E"/>
<stop offset="1" stop-color="#4FE09F"/>
</linearGradient>
<linearGradient id="paint7_linear_57_51" x1="216.5" y1="700.5" x2="366" y2="764" gradientUnits="userSpaceOnUse">
<stop stop-color="#1C4C9E"/>
<stop offset="1" stop-color="#4FE09F"/>
</linearGradient>
<linearGradient id="paint8_linear_57_51" x1="113" y1="737" x2="113" y2="759" gradientUnits="userSpaceOnUse">
<stop stop-color="#1C4C9E"/>
<stop offset="1" stop-color="#00F0FF"/>
</linearGradient>
<linearGradient id="paint9_linear_57_51" x1="113" y1="737" x2="113" y2="759" gradientUnits="userSpaceOnUse">
<stop stop-color="#1C4C9E"/>
<stop offset="1" stop-color="#00F0FF"/>
</linearGradient>
<linearGradient id="paint10_linear_57_51" x1="41.1078" y1="503.052" x2="41.1078" y2="518.052" gradientUnits="userSpaceOnUse">
<stop stop-color="#2E6CD8"/>
<stop offset="1" stop-color="#4FE09F"/>
</linearGradient>
<linearGradient id="paint11_linear_57_51" x1="47.1114" y1="470.611" x2="47.1114" y2="485.611" gradientUnits="userSpaceOnUse">
<stop stop-color="#2E6CD8"/>
<stop offset="1" stop-color="#4FE09F"/>
</linearGradient>
<linearGradient id="paint12_linear_57_51" x1="59.7155" y1="440.106" x2="59.7155" y2="455.106" gradientUnits="userSpaceOnUse">
<stop stop-color="#2E6CD8"/>
<stop offset="1" stop-color="#4FE09F"/>
</linearGradient>
<linearGradient id="paint13_linear_57_51" x1="78.3951" y1="412.906" x2="78.3951" y2="427.906" gradientUnits="userSpaceOnUse">
<stop stop-color="#2E6CD8"/>
<stop offset="1" stop-color="#4FE09F"/>
</linearGradient>
<linearGradient id="paint14_linear_57_51" x1="102.339" y1="390.238" x2="102.339" y2="405.238" gradientUnits="userSpaceOnUse">
<stop stop-color="#2E6CD8"/>
<stop offset="1" stop-color="#4FE09F"/>
</linearGradient>
<linearGradient id="paint15_linear_57_51" x1="130.488" y1="373.113" x2="130.488" y2="388.113" gradientUnits="userSpaceOnUse">
<stop stop-color="#2E6CD8"/>
<stop offset="1" stop-color="#4FE09F"/>
</linearGradient>
<linearGradient id="paint16_linear_57_51" x1="161.588" y1="362.276" x2="161.588" y2="377.276" gradientUnits="userSpaceOnUse">
<stop stop-color="#2E6CD8"/>
<stop offset="1" stop-color="#4FE09F"/>
</linearGradient>
<linearGradient id="paint17_linear_57_51" x1="194.263" y1="358.178" x2="194.263" y2="373.178" gradientUnits="userSpaceOnUse">
<stop stop-color="#2E6CD8"/>
<stop offset="1" stop-color="#4FE09F"/>
</linearGradient>
<linearGradient id="paint18_linear_57_51" x1="227.075" y1="360.958" x2="227.075" y2="375.958" gradientUnits="userSpaceOnUse">
<stop stop-color="#2E6CD8"/>
<stop offset="1" stop-color="#4FE09F"/>
</linearGradient>
<linearGradient id="paint19_linear_57_51" x1="258.601" y1="370.46" x2="258.601" y2="385.46" gradientUnits="userSpaceOnUse">
<stop stop-color="#2E6CD8"/>
<stop offset="1" stop-color="#4FE09F"/>
</linearGradient>
<linearGradient id="paint20_linear_57_51" x1="287.483" y1="386.247" x2="287.483" y2="401.247" gradientUnits="userSpaceOnUse">
<stop stop-color="#2E6CD8"/>
<stop offset="1" stop-color="#4FE09F"/>
</linearGradient>
<linearGradient id="paint21_linear_57_51" x1="312.479" y1="407.631" x2="312.479" y2="422.631" gradientUnits="userSpaceOnUse">
<stop stop-color="#2E6CD8"/>
<stop offset="1" stop-color="#4FE09F"/>
</linearGradient>
<linearGradient id="paint22_linear_57_51" x1="332.506" y1="433.703" x2="332.506" y2="448.703" gradientUnits="userSpaceOnUse">
<stop stop-color="#2E6CD8"/>
<stop offset="1" stop-color="#4FE09F"/>
</linearGradient>
<linearGradient id="paint23_linear_57_51" x1="346.682" y1="463.36" x2="346.682" y2="478.36" gradientUnits="userSpaceOnUse">
<stop stop-color="#2E6CD8"/>
<stop offset="1" stop-color="#4FE09F"/>
</linearGradient>
<linearGradient id="paint24_linear_57_51" x1="354.357" y1="495.344" x2="354.357" y2="510.344" gradientUnits="userSpaceOnUse">
<stop stop-color="#2E6CD8"/>
<stop offset="1" stop-color="#4FE09F"/>
</linearGradient>
<linearGradient id="paint25_linear_57_51" x1="41.1078" y1="503.052" x2="41.1078" y2="518.052" gradientUnits="userSpaceOnUse">
<stop stop-color="#2E6CD8"/>
<stop offset="1" stop-color="#4FE09F"/>
</linearGradient>
<linearGradient id="paint26_linear_57_51" x1="47.1114" y1="470.611" x2="47.1114" y2="485.611" gradientUnits="userSpaceOnUse">
<stop stop-color="#2E6CD8"/>
<stop offset="1" stop-color="#4FE09F"/>
</linearGradient>
<linearGradient id="paint27_linear_57_51" x1="59.7155" y1="440.106" x2="59.7155" y2="455.106" gradientUnits="userSpaceOnUse">
<stop stop-color="#2E6CD8"/>
<stop offset="1" stop-color="#4FE09F"/>
</linearGradient>
<linearGradient id="paint28_linear_57_51" x1="78.3951" y1="412.906" x2="78.3951" y2="427.906" gradientUnits="userSpaceOnUse">
<stop stop-color="#2E6CD8"/>
<stop offset="1" stop-color="#4FE09F"/>
</linearGradient>
<linearGradient id="paint29_linear_57_51" x1="102.339" y1="390.238" x2="102.339" y2="405.238" gradientUnits="userSpaceOnUse">
<stop stop-color="#2E6CD8"/>
<stop offset="1" stop-color="#4FE09F"/>
</linearGradient>
<linearGradient id="paint30_linear_57_51" x1="130.488" y1="373.113" x2="130.488" y2="388.113" gradientUnits="userSpaceOnUse">
<stop stop-color="#2E6CD8"/>
<stop offset="1" stop-color="#4FE09F"/>
</linearGradient>
<linearGradient id="paint31_linear_57_51" x1="161.588" y1="362.276" x2="161.588" y2="377.276" gradientUnits="userSpaceOnUse">
<stop stop-color="#2E6CD8"/>
<stop offset="1" stop-color="#4FE09F"/>
</linearGradient>
<linearGradient id="paint32_linear_57_51" x1="194.263" y1="358.178" x2="194.263" y2="373.178" gradientUnits="userSpaceOnUse">
<stop stop-color="#2E6CD8"/>
<stop offset="1" stop-color="#4FE09F"/>
</linearGradient>
<linearGradient id="paint33_linear_57_51" x1="227.075" y1="360.958" x2="227.075" y2="375.958" gradientUnits="userSpaceOnUse">
<stop stop-color="#2E6CD8"/>
<stop offset="1" stop-color="#4FE09F"/>
</linearGradient>
<linearGradient id="paint34_linear_57_51" x1="258.601" y1="370.46" x2="258.601" y2="385.46" gradientUnits="userSpaceOnUse">
<stop stop-color="#2E6CD8"/>
<stop offset="1" stop-color="#4FE09F"/>
</linearGradient>
<linearGradient id="paint35_linear_57_51" x1="287.483" y1="386.247" x2="287.483" y2="401.247" gradientUnits="userSpaceOnUse">
<stop stop-color="#2E6CD8"/>
<stop offset="1" stop-color="#4FE09F"/>
</linearGradient>
<linearGradient id="paint36_linear_57_51" x1="312.479" y1="407.631" x2="312.479" y2="422.631" gradientUnits="userSpaceOnUse">
<stop stop-color="#2E6CD8"/>
<stop offset="1" stop-color="#4FE09F"/>
</linearGradient>
<linearGradient id="paint37_linear_57_51" x1="332.506" y1="433.703" x2="332.506" y2="448.703" gradientUnits="userSpaceOnUse">
<stop stop-color="#2E6CD8"/>
<stop offset="1" stop-color="#4FE09F"/>
</linearGradient>
<linearGradient id="paint38_linear_57_51" x1="346.682" y1="463.36" x2="346.682" y2="478.36" gradientUnits="userSpaceOnUse">
<stop stop-color="#2E6CD8"/>
<stop offset="1" stop-color="#4FE09F"/>
</linearGradient>
<linearGradient id="paint39_linear_57_51" x1="354.357" y1="495.344" x2="354.357" y2="510.344" gradientUnits="userSpaceOnUse">
<stop stop-color="#2E6CD8"/>
<stop offset="1" stop-color="#4FE09F"/>
</linearGradient>
<linearGradient id="paint40_linear_57_51" x1="0.999999" y1="221.5" x2="390" y2="221.5" gradientUnits="userSpaceOnUse">
<stop stop-color="#FF0000"/>
<stop offset="0.0833333" stop-color="#FF2E00"/>
<stop offset="0.161458" stop-color="#FFA800"/>
<stop offset="0.239583" stop-color="#FAFF00"/>
<stop offset="0.3125" stop-color="#61FF00"/>
<stop offset="0.411458" stop-color="#12FFD4"/>
<stop offset="0.520833" stop-color="#298BFF"/>
<stop offset="0.630208" stop-color="#0066FF"/>
<stop offset="0.713542" stop-color="#2400FF"/>
<stop offset="0.78125" stop-color="#8000FF"/>
<stop offset="0.848958" stop-color="#FA00FF"/>
<stop offset="0.911458" stop-color="#FF002E"/>
<stop offset="1" stop-color="#FF0000"/>
</linearGradient>
<linearGradient id="paint41_linear_57_51" x1="-1.08965e-06" y1="221.5" x2="390" y2="221.5" gradientUnits="userSpaceOnUse">
<stop stop-color="#FF0000"/>
<stop offset="0.0833333" stop-color="#FF2E00"/>
<stop offset="0.161458" stop-color="#FFA800"/>
<stop offset="0.239583" stop-color="#FAFF00"/>
<stop offset="0.3125" stop-color="#61FF00"/>
<stop offset="0.411458" stop-color="#12FFD4"/>
<stop offset="0.520833" stop-color="#298BFF"/>
<stop offset="0.630208" stop-color="#0066FF"/>
<stop offset="0.713542" stop-color="#2400FF"/>
<stop offset="0.78125" stop-color="#8000FF"/>
<stop offset="0.848958" stop-color="#FA00FF"/>
<stop offset="0.911458" stop-color="#FF002E"/>
<stop offset="1" stop-color="#FF0000"/>
</linearGradient>
<linearGradient id="paint42_linear_57_51" x1="194.5" y1="253" x2="194.5" y2="258" gradientUnits="userSpaceOnUse">
<stop stop-color="#061521"/>
<stop offset="1" stop-color="#061521" stop-opacity="0"/>
</linearGradient>
<linearGradient id="paint43_linear_57_51" x1="-1.08965e-06" y1="221.5" x2="390" y2="221.5" gradientUnits="userSpaceOnUse">
<stop stop-color="#FF0000"/>
<stop offset="0.0833333" stop-color="#FF2E00"/>
<stop offset="0.161458" stop-color="#FFA800"/>
<stop offset="0.239583" stop-color="#FAFF00"/>
<stop offset="0.3125" stop-color="#61FF00"/>
<stop offset="0.411458" stop-color="#12FFD4"/>
<stop offset="0.520833" stop-color="#298BFF"/>
<stop offset="0.630208" stop-color="#0066FF"/>
<stop offset="0.713542" stop-color="#2400FF"/>
<stop offset="0.78125" stop-color="#8000FF"/>
<stop offset="0.848958" stop-color="#FA00FF"/>
<stop offset="0.911458" stop-color="#FF002E"/>
<stop offset="1" stop-color="#FF0000"/>
</linearGradient>
<linearGradient id="paint44_linear_57_51" x1="230" y1="134" x2="230" y2="172" gradientUnits="userSpaceOnUse">
<stop stop-color="#00F0FF"/>
<stop offset="1" stop-color="#2E6CD8"/>
</linearGradient>
<linearGradient id="paint45_linear_57_51" x1="230" y1="134" x2="230" y2="172" gradientUnits="userSpaceOnUse">
<stop stop-color="#00F0FF"/>
<stop offset="1" stop-color="#2E6CD8"/>
</linearGradient>
<linearGradient id="paint46_linear_57_51" x1="230" y1="134" x2="230" y2="172" gradientUnits="userSpaceOnUse">
<stop stop-color="#00F0FF"/>
<stop offset="1" stop-color="#2E6CD8"/>
</linearGradient>
<linearGradient id="paint47_linear_57_51" x1="230" y1="134" x2="230" y2="172" gradientUnits="userSpaceOnUse">
<stop stop-color="#00F0FF"/>
<stop offset="1" stop-color="#2E6CD8"/>
</linearGradient>
<clipPath id="clip0_57_51">
<rect width="390" height="844" fill="white"/>
</clipPath>
<clipPath id="clip1_57_51">
<rect x="25" y="691" width="157" height="73" rx="20" fill="white"/>
</clipPath>
</defs>
</svg>
