<svg width="24" height="24" viewBox="0 0 24 24" fill="none" xmlns="http://www.w3.org/2000/svg">
<g clip-path="url(#clip0_5_98)">
<path d="M22.7831 2.73599H1.21688C0.929252 2.73599 0.669752 2.83837 0.460877 3.00262H0.460502C0.175502 3.22762 -0.010498 3.57262 -0.010498 3.96337V21.2636H24.0109V3.96337C24.0105 3.28799 23.4638 2.73599 22.7831 2.73599ZM20.7225 8.35537C21.4928 8.35537 22.1171 8.98049 22.1171 9.75074C22.1171 10.521 21.4928 11.1457 20.7225 11.1457C19.9515 11.1457 19.3271 10.5206 19.3271 9.75074C19.3271 8.98049 19.9515 8.35537 20.7225 8.35537ZM17.5744 17.5627H2.99888V17.2106V16.5311V7.18837C2.99888 6.58649 3.43163 6.45899 3.708 6.43687H16.8443C16.992 6.44062 17.5748 6.50399 17.5748 7.24987V17.5627H17.5744ZM20.7221 15.6439C19.9493 15.6439 19.3238 15.0176 19.3238 14.2455C19.3238 13.4734 19.9496 12.8467 20.7221 12.8467C21.4939 12.8467 22.1205 13.4737 22.1205 14.2455C22.1205 15.0172 21.4935 15.6439 20.7221 15.6439Z" fill="white"/>
</g>
<defs>
<clipPath id="clip0_5_98">
<rect width="24" height="24" fill="white"/>
</clipPath>
</defs>
</svg>
