<svg width="32" height="32" viewBox="0 0 32 32" fill="none" xmlns="http://www.w3.org/2000/svg">
<path d="M16 29.3334C17.4667 29.3334 18.6667 28.1334 18.6667 26.6667H13.3333C13.3333 27.374 13.6143 28.0522 14.1144 28.5523C14.6145 29.0524 15.2928 29.3334 16 29.3334ZM24 21.3334V14.6667C24 10.5734 21.8133 7.14671 18 6.24004V5.33337C18 4.22671 17.1067 3.33337 16 3.33337C14.8933 3.33337 14 4.22671 14 5.33337V6.24004C10.1733 7.14671 8.00001 10.56 8.00001 14.6667V21.3334L6.28001 23.0534C5.44001 23.8934 6.02667 25.3334 7.21334 25.3334H24.7733C25.96 25.3334 26.56 23.8934 25.72 23.0534L24 21.3334Z" fill="url(#paint0_linear_37_327)"/>
<path d="M16 27.6666C17.2833 27.6666 18.3333 26.6166 18.3333 25.3333H13.6667C13.6667 25.9521 13.9125 26.5456 14.3501 26.9832C14.7877 27.4208 15.3812 27.6666 16 27.6666ZM23 20.6666V14.8333C23 11.2516 21.0867 8.25329 17.75 7.45996V6.66663C17.75 5.69829 16.9683 4.91663 16 4.91663C15.0317 4.91663 14.25 5.69829 14.25 6.66663V7.45996C10.9017 8.25329 9 11.24 9 14.8333V20.6666L7.495 22.1716C6.76 22.9066 7.27333 24.1666 8.31167 24.1666H23.6767C24.715 24.1666 25.24 22.9066 24.505 22.1716L23 20.6666Z" fill="#0D2639"/>
<defs>
<linearGradient id="paint0_linear_37_327" x1="15.9984" y1="3.33337" x2="15.9984" y2="29.3334" gradientUnits="userSpaceOnUse">
<stop stop-color="#2E6CD8"/>
<stop offset="1" stop-color="#4FE09F"/>
</linearGradient>
</defs>
</svg>
