<svg width="32" height="32" viewBox="0 0 32 32" fill="none" xmlns="http://www.w3.org/2000/svg">
<path d="M20 14.6666H29.3334V17.3333H20V14.6666ZM21.3334 20H29.3334V22.6666H21.3334V20ZM18.6667 9.33329H29.3334V12H18.6667V9.33329ZM5.33335 25.3333H18.6667V24C18.6667 20.324 15.676 17.3333 12 17.3333H9.33335C5.65735 17.3333 2.66669 20.324 2.66669 24V25.3333H5.33335ZM10.6667 16C13.3267 16 15.3334 13.9933 15.3334 11.3333C15.3334 8.67329 13.3267 6.66663 10.6667 6.66663C8.00669 6.66663 6.00002 8.67329 6.00002 11.3333C6.00002 13.9933 8.00669 16 10.6667 16Z" fill="#0D2639" fill-opacity="0.25"/>
</svg>
