<svg width="25" height="24" viewBox="0 0 25 24" fill="none" xmlns="http://www.w3.org/2000/svg">
<path d="M13.987 15.5389C13.0679 17.0359 11.2551 16.773 10.6776 15.5914C9.154 17.2466 7.91125 15.537 7.91125 15.537C8.19025 17.7454 10.0743 19.4516 12.3588 19.4516C14.68 19.4516 16.5888 17.6888 16.8179 15.4279C16.8179 15.4279 14.7749 16.6155 13.987 15.5389Z" fill="white"/>
<path d="M2.974 6.85763V23.3711C2.974 23.7184 3.26725 23.9989 3.63062 23.9989H21.1514C21.514 23.9989 21.8076 23.7184 21.8076 23.3711V6.85763H2.974ZM12.3647 20.5477C9.43187 20.5477 7.05437 18.1706 7.05437 15.2378C7.05437 12.3056 9.4315 9.92775 12.3647 9.92775C15.2972 9.92775 17.6747 12.3052 17.6747 15.2378C17.6747 18.1706 15.2972 20.5477 12.3647 20.5477Z" fill="white"/>
<path d="M21.1514 0.00150013H3.63062C3.26725 0.00150013 2.974 0.304875 2.974 0.6795V5.65163H21.8076V0.6795C21.8076 0.304875 21.514 0.00150013 21.1514 0.00150013ZM6.43975 3.76838C5.91962 3.76838 5.49812 3.3465 5.49812 2.82675C5.49812 2.30625 5.91962 1.88513 6.43975 1.88513C6.95987 1.88513 7.38137 2.30625 7.38137 2.82675C7.38175 3.3465 6.96025 3.76838 6.43975 3.76838ZM9.54925 3.76838C9.0295 3.76838 8.60762 3.3465 8.60762 2.82675C8.60762 2.30625 9.0295 1.88513 9.54925 1.88513C10.069 1.88513 10.4909 2.30625 10.4909 2.82675C10.4912 3.3465 10.0694 3.76838 9.54925 3.76838Z" fill="white"/>
</svg>
